<svg xmlns="http://www.w3.org/2000/svg" enable-background="new 0 0 50 50" viewBox="0 0 50 50"><path fill="#FED44C" d="M25.66702,15.78177l-17.0681,9.91184L2.8312,22.36104
							c-0.09966-0.05702-0.19935-0.06397-0.26346-0.02121l17.06102-9.91915c0.07119-0.03581,0.16376-0.02851,0.27059,0.02851
							L25.66702,15.78177z"/><path fill="#F2BC36" d="M27.35461,22.76679l-17.06097,9.91915c0.09257-0.05702,0.13529-0.19227,0.09257-0.38454
							l-1.42412-6.09529c-0.04985-0.20653-0.19227-0.41305-0.36316-0.51249l17.0681-9.91184
							c0.1638,0.09248,0.30618,0.29901,0.35603,0.50554l1.42412,6.10225C27.49703,22.57487,27.45431,22.70977,27.35461,22.76679z"/><path fill="#F9C73A" d="M8.60214,25.69483c0.1682,0.09711,0.30879,0.30376,0.3583,0.51034l1.42624,6.09773
							c0.07649,0.32152-0.10615,0.49882-0.35619,0.35446l-8.65611-4.99761c-0.25459-0.14699-0.4311-0.53165-0.35757-0.76655
							l1.45609-4.43362c0.05051-0.14883,0.19635-0.19011,0.36001-0.09562L8.60214,25.69483z"/><polygon fill="#F2BC36" points="19.231 15.269 19.094 15.349 18.656 15.096 18.415 15.237 18.806 15.463 18.671 15.541 18.279 15.315 17.917 15.526 17.768 15.44 18.645 14.93"/><path fill="#F2BC36" d="M19.57035 15.40707c.00011.02178-.01229.03869-.03521.05201-.02495.0145-.05411.02174-.08968.02056-.03551.00122-.0647-.00609-.08984-.0206-.02304-.0133-.03576-.0302-.03586-.05197-.00005-.01939.01235-.0363.0373-.0508.02292-.01332.05208-.02056.08759-.02178.03556.00117.06692.00723.08996.02054C19.55974 15.36954 19.5703 15.38768 19.57035 15.40707zM19.89885 15.88361c.07542.04354.11535.09315.11356.14758.00036.05319-.04322.10521-.12859.15482l-.41002.23828-.14037-.08104.36632-.21288c.12275-.07133.13282-.13786.03016-.19713-.04819-.02782-.10668-.04236-.1777-.04478-.06679-.00245-.13142.0157-.19184.05081l-.36214.21045-.14246-.08225.66817-.3883.14246.08225-.12286.0714c.06262-.01212.12521-.01209.18997-.00361C19.79832 15.84009 19.85276 15.857 19.89885 15.88361z"/><polygon fill="#F2BC36" points="18.51 15.868 19.178 15.48 19.319 15.561 18.65 15.949"/><path fill="#F2BC36" d="M20.66547 16.68559l-.09565.05558-.52794-.3048c-.04369.03024-.06028.06659-.04961.10649.01074.0423.04435.07859.09673.10883.0838.04838.17573.07019.26969.06413l-.0057.09796c-.1461.00239-.27787-.03026-.39518-.09799-.09427-.05443-.14272-.11851-.14732-.1935-.00249-.07378.04721-.1415.15347-.20325.104-.06044.22075-.08945.35023-.08703.12949.00242.24038.0302.33256.08342.09009.05202.13847.1137.14933.18263C20.80473 16.56583 20.76337 16.62869 20.66547 16.68559zM20.1521 16.37232l.38548.22256c.05624-.03268.08319-.06775.07671-.10525-.00648-.03749-.03377-.0726-.08405-.10163-.05238-.03024-.11518-.04714-.18824-.05322C20.26881 16.32876 20.2063 16.34082 20.1521 16.37232M15.42702 17.20572c-.03516.04956-.08916.09793-.16617.14268-.07702.04476-.14999.07746-.21881.09803-.06667.01933-.13138.03024-.18775.03145-.11483.0012-.21311-.02178-.29481-.06895-.07961-.04596-.13008-.10402-.14499-.17058l.15647-.01811c.00218.01814.01281.03866.02954.06049.01482.02294.03375.04107.0547.05316.06704.03871.13803.05327.2153.04477.07513-.00725.15219-.03262.2292-.07737-.03753.0024-.08351-.00243-.13363-.01214-.05226-.00846-.09833-.02538-.13813-.04836-.06704-.03871-.10068-.08468-.10308-.13669.00174-.05198.03708-.09921.10992-.14154.07487-.04351.15618-.06406.25231-.06168.09188.00243.17766.02539.25098.06772C15.45957 17.03875 15.48707 17.11743 15.42702 17.20572zM15.10145 17.22746c.05016.0024.09599-.00725.13348-.02903.03952-.02297.05823-.0484.05589-.08102.0019-.03266-.01909-.05929-.06309-.0847-.04189-.02419-.08795-.03626-.13811-.03866-.05219-.00122-.09593.00963-.13546.0326-.03749.02179-.05823.04841-.06013.07621-.00196.03027.01903.05691.06302.0823C15.00104 17.21057 15.04716 17.22503 15.10145 17.22746M17.70849 18.52293c-.03516.04956-.08916.09792-.16617.14268-.07702.04476-.14998.07746-.2188.09803-.06667.01933-.13139.03024-.18776.03144-.11483.00121-.2131-.02177-.29481-.06895-.07962-.04597-.13007-.10401-.14499-.17058l.15647-.01812c.00219.01814.01282.03867.02955.0605.01482.02294.03375.04107.0547.05316.06704.03871.13803.05327.21531.04477.07512-.00725.15219-.03262.2292-.07737-.03754.0024-.08352-.00244-.13364-.01214-.05227-.00846-.09833-.02538-.13813-.04836-.06705-.03871-.10069-.08469-.10308-.13669.00173-.05198.03707-.09921.10991-.14154.07487-.04351.15618-.06406.25231-.06168.09189.00243.17766.02539.25099.06773C17.74105 18.35596 17.76854 18.43463 17.70849 18.52293zM17.38291 18.54467c.05016.0024.09599-.00725.13348-.02903.03952-.02297.05824-.0484.0559-.08102.00189-.03266-.02118-.0605-.06308-.08469-.04191-.02419-.08796-.03626-.13811-.03866-.05219-.00122-.09593.00963-.13545.0326-.03749.02179-.06033.04719-.06014.07621-.00196.03027.01902.0569.06302.0823C17.28251 18.52778 17.32862 18.54223 17.38291 18.54467M16.54664 18.37293c.02095.01209.03359.02659.03364.04598.0001.01693-.01027.03267-.03308.04592-.02089.01214-.04802.01819-.07928.01937-.03133-.00121-.05854-.00724-.07949-.01934-.02304-.0133-.03354-.02905-.03365-.04598.00194-.01811.0123-.03385.03319-.04599.02281-.01326.04994-.01931.07917-.01931C16.49853 18.35235 16.5236 18.35962 16.54664 18.37293zM16.75526 17.97258c-.03307.05077-.08915.09793-.16616.14268-.07702.04476-.15.07745-.21881.09802-.06667.01933-.12929.03145-.18776.03144-.11483.00121-.21101-.02057-.29271-.06774-.08171-.04718-.13007-.10401-.14709-.17179l.15856-.01691c.00219.01814.01072.03746.02745.05928.01482.02294.03375.04107.0547.05316.06704.03871.13803.05327.2174.04598.07512-.00725.15009-.03383.2292-.07737-.03963.00119-.08352-.00244-.13364-.01214-.05226-.00846-.09833-.02538-.14023-.04957-.06705-.03871-.10068-.08469-.10098-.13548-.00035-.05318.03499-.10042.10782-.14275.07487-.04351.15826-.06286.2523-.06169.09398.00364.17766.02539.25308.06894C16.78781 17.80561 16.81741 17.8855 16.75526 17.97258zM16.42968 17.99432c.05225.00361.09808-.00604.13557-.02782.03952-.02297.05614-.04961.0559-.08102.0019-.03266-.02118-.0605-.06308-.08469s-.09005-.03747-.14021-.03987c-.05219-.00122-.09593.00963-.13545.0326-.03749.02179-.05823.0484-.05804.07742-.00406.02906.01902.0569.06092.08109C16.32928 17.97743 16.37541 17.99189 16.42968 17.99432M16.09114 17.58915c-.03307.05077-.08916.09792-.16617.14268-.07702.04476-.14998.07746-.2188.09803-.06667.01933-.13138.03024-.18775.03145-.11483.0012-.21311-.02178-.29272-.06774-.08171-.04717-.13008-.10402-.14709-.17179l.15857-.0169c.00009.01693.01072.03745.02745.05928.01482.02294.03375.04107.0547.05316.06704.03871.13803.05327.21531.04477.07512-.00725.15219-.03261.2292-.07737-.03755.0024-.08143-.00123-.13364-.01214-.05227-.00846-.09623-.02417-.13814-.04836-.06703-.0387-.10068-.08468-.10307-.13669.00173-.05198.03707-.09921.10991-.14154.07487-.04351.15828-.06285.25231-.06167.09398.00363.17766.02539.25307.06893C16.12369 17.42218 16.15329 17.50207 16.09114 17.58915zM15.76556 17.61089c.05225.00361.09809-.00603.13558-.02782.03952-.02297.05614-.04961.05589-.08102-.0002-.03386-.02118-.0605-.06309-.0847-.04189-.02419-.09004-.03747-.1402-.03987-.05219-.00122-.09593.00963-.13545.0326-.03749.02179-.05823.0484-.05805.07742-.00406.02906.01693.05569.06092.08109C15.66516 17.594 15.71128 17.60845 15.76556 17.61089M20.50082 17.47055l.20951.12096-1.37167.79713-.20951-.12096.14781-.0859c-.1858.01818-.35093-.0145-.49967-.10037-.1257-.07257-.18879-.16211-.18737-.26974-.00066-.10883.07611-.20683.23014-.29635.15188-.08826.32292-.13184.51088-.12942.18586.00121.34681.04115.4788.11736.13198.0762.18271.1705.15199.28058L20.50082 17.47055zM19.30559 18.07049c.11484-.0012.22117-.02902.31479-.08342.09373-.05447.14345-.11734.14933-.18629.00588-.06895-.03204-.12943-.11375-.1766-.0838-.04838-.18834-.07015-.31154-.06894-.12111.00242-.22949.03142-.32322.08589-.09361.0544-.14129.11609-.14095.18628.00249.06894.04458.127.12629.17417C19.09034 18.04996 19.18861 18.07295 19.30559 18.07049"/><polygon fill="#F2BC36" points="19.46 16.869 18.088 17.667 17.878 17.546 19.25 16.748"/><path fill="#F2BC36" d="M18.34427 16.82829c.00056.11374-.06987.21292-.21136.29515-.14149.08223-.31249.12335-.50886.1234-.19625-.00002-.36983-.04477-.51858-.13065-.14875-.08588-.22447-.18507-.22724-.29995-.00057-.11374.06986-.21293.21136-.29515s.31249-.12335.50886-.12339c.19835.00123.37186.04358.52061.12946C18.26781 16.61303 18.3436 16.71461 18.34427 16.82829zM17.60437 17.08594c.11693.00001.22328-.02781.31904-.08346.09576-.05565.14344-.11734.14508-.18625-.00028-.06779-.04453-.12945-.13461-.18146-.09009-.05201-.19668-.07744-.31371-.07738-.11896.00118-.22531.029-.32107.08465-.09576.05565-.14344.11734-.14305.18507-.00164.06891.0425.13063.13259.18264C17.37872 17.06176 17.48541 17.08712 17.60437 17.08594M17.20149 15.62115c.18855.10886.2895.2298.3048.3641l-.28377.02899c-.00658-.05443-.02772-.10038-.0635-.14027-.03566-.03995-.08608-.07861-.15522-.11853-.13198-.0762-.28248-.11495-.45794-.11735-.17331-.00365-.32977.03632-.46709.11611-.13743.07986-.20376.16938-.20109.26733.00477.09917.06785.18386.19146.25522.12361.07137.25336.11489.38922.13301l.35593-.20685.21998.127-.44334.25764c-.25686.00607-.49946-.05682-.72782-.18866-.19274-.11128-.29161-.2407-.29452-.38707-.00296-.14875.09029-.27819.28181-.38949.19355-.11248.41874-.1681.67979-.16691C16.78913 15.4579 17.01504 15.5135 17.20149 15.62115z"/><polygon fill="#F2BC36" points="5.936 21.402 4.919 21.993 4.756 21.899 5.619 21.397 5.412 21.277 5.566 21.188"/><polygon fill="#F2BC36" points="7.738 21.415 7.257 21.695 7.168 21.643 7.247 21.281 6.895 21.486 6.813 21.438 7.294 21.159 7.376 21.206 7.298 21.576 7.656 21.368"/><path fill="#F2BC36" d="M6.77833 22.02646c-.02572.09506-.11867.18914-.27905.28234-.16028.09314-.32248.14735-.48651.16256-.16563.01614-.31849-.01711-.45844-.09791-.1383-.07985-.19621-.16829-.16889-.26428.02572-.09506.11876-.18919.27904-.28234.16037-.0932.32249-.14734.48651-.16255.16571-.01619.31849.01711.4568.09696C6.74775 21.84204 6.80574 21.93042 6.77833 22.02646zM5.99396 22.33732c.10989-.01808.22125-.0599.33573-.12644.11458-.06659.18641-.13122.21558-.19395.03077-.06366.00264-.1198-.08463-.17018-.08562-.04943-.18262-.06554-.29408-.04846-.10989.01808-.22289.05895-.33578.12455s-.18307.13119-.21384.19485c-.02921.06466-.00099.12075.08463.17018C5.78883 22.33826 5.88575 22.35442 5.99396 22.33732M9.53224 23.76037l.16466.09506L9.02292 24.2471c-.13748.07989-.27838.1179-.41957.11412-.14443-.00381-.27428-.03898-.39118-.10648s-.18625-.14927-.20818-.24717l.20004-.0266c.0185.07699.06811.13782.14549.1825.07738.04468.15957.0694.24334.07222.08693.00289.17055-.0209.25886-.07222l.09816-.05704c-.06885.0133-.13946.01428-.21334.00381-.07229-.0114-.13637-.03329-.19236-.06561-.10374-.05989-.15176-.12926-.14889-.20914.00612-.07985.06318-.15116.1695-.21295.10632-.06179.22915-.09502.36539-.0979.13949-.00285.25949.02469.36322.08458.10208.05894.14346.13218.12425.21773L9.53224 23.76037zM8.94613 24.02849c.08536-.00192.16241-.0219.22941-.06084.0655-.03806.10134-.08368.10597-.13406.00299-.05133-.02845-.09601-.09431-.13403-.06587-.03803-.14145-.05514-.22845-.05036-.08691.00472-.16232.02566-.22613.06274-.06372.03703-.09801.07985-.10589.1302-.00628.04943.02351.09315.09102.13213C8.78363 24.01229 8.86086 24.03036 8.94613 24.02849M8.79205 23.18909c-.02572.09506-.11867.18914-.27905.28234-.16028.09315-.32248.14735-.48651.16256-.16563.01614-.31849-.01711-.45845-.09792-.1383-.07985-.1962-.16828-.16888-.26427.02572-.09506.11876-.18919.27905-.28234.16037-.0932.32248-.14735.48651-.16256.16572-.01619.31849.01711.45679.09696C8.76147 23.00466 8.81945 23.09304 8.79205 23.18909zM8.00768 23.49994c.1099-.01808.22125-.0599.33574-.12643.11458-.06658.18641-.13122.21558-.19395.03077-.06366.00264-.1198-.08463-.17018-.08562-.04943-.18262-.06555-.29407-.04846-.10989.01808-.22289.05895-.33578.12456s-.18307.13119-.21385.19485c-.02922.06466-.00099.12075.08462.17018C7.80256 23.50088 7.89947 23.51704 8.00768 23.49994"/><polygon fill="#F2BC36" points="9.984 22.712 9.911 22.755 9.764 22.67 9.357 22.907 9.276 22.86 9.683 22.623 9.537 22.539 9.61 22.496"/><polygon fill="#F2BC36" points="9.581 22.479 8.93 22.661 8.85 22.614 9.078 22.363 9.073 22.36 8.64 22.493 8.56 22.447 8.873 22.07 8.96 22.121 8.737 22.391 9.189 22.253 9.263 22.295 9.025 22.558 9.492 22.428"/><polygon fill="#F2BC36" points="8.654 21.944 8.58 21.986 8.434 21.902 8.026 22.139 7.944 22.091 8.351 21.854 8.205 21.77 8.278 21.727"/><path fill="#F2BC36" d="M7.78437,22.6073c-0.02572,0.09506-0.11868,0.18913-0.27905,0.28233
							c-0.16028,0.09314-0.32248,0.14735-0.4865,0.16256c-0.16563,0.01614-0.31685-0.01616-0.4568-0.09697
							c-0.13996-0.0808-0.19621-0.16829-0.16889-0.26428c0.02572-0.09506,0.11877-0.18919,0.27905-0.28233
							c0.16037-0.0932,0.32248-0.14735,0.48651-0.16256c0.16571-0.01619,0.31684,0.01616,0.4568,0.09696
							C7.75544,22.42383,7.81178,22.51126,7.78437,22.6073z M7,22.91816c0.10989-0.01808,0.22125-0.0599,0.33573-0.12644
							c0.11458-0.06659,0.18641-0.13122,0.21558-0.19395c0.03077-0.06366,0.00264-0.1198-0.08298-0.16923
							c-0.08562-0.04943-0.18427-0.0665-0.29408-0.04847c-0.11154,0.01714-0.22288,0.05895-0.33577,0.12456
							c-0.11289,0.06561-0.18472,0.13024-0.21385,0.19485c-0.03086,0.06372-0.00099,0.12075,0.08463,0.17019
							C6.79487,22.9191,6.89179,22.93526,7,22.91816"/><polygon fill="#F2BC36" points="8.211 21.688 8.134 21.733 7.877 21.584 7.751 21.658 7.982 21.791 7.91 21.833 7.679 21.699 7.55 21.775 7.815 21.928 7.738 21.972 7.391 21.772 7.872 21.492"/><polygon fill="#FFF" points="23.013 17.605 23.178 18.162 22.837 17.692 22.225 18.819 22.425 17.552 21.868 17.717 22.338 17.375 21.211 16.764 22.477 16.964 22.312 16.407 22.654 16.877 23.266 15.75 23.066 17.016 23.623 16.851 23.153 17.193 24.28 17.805"/><polygon fill="#FFF" points="9.408 25.926 9.489 26.199 9.321 25.968 9.02 26.522 9.119 25.9 8.845 25.981 9.076 25.813 8.522 25.513 9.144 25.611 9.063 25.337 9.231 25.568 9.532 25.015 9.433 25.637 9.707 25.556 9.476 25.723 10.03 26.024"/><path fill="#FED44C" d="M36.43299,22.31494l-17.0681,9.91185l-5.76773-3.33257
							c-0.09966-0.05702-0.19936-0.06397-0.26346-0.02121l17.06102-9.91915c0.07119-0.03581,0.16376-0.02851,0.27059,0.02851
							L36.43299,22.31494z"/><path fill="#F2BC36" d="M38.12057,29.29996L21.0596,39.2191c0.09257-0.05702,0.13529-0.19227,0.09257-0.38454
							l-1.42412-6.09529c-0.04985-0.20652-0.19227-0.41305-0.36316-0.51249l17.0681-9.91185
							c0.16381,0.09249,0.30618,0.29901,0.35603,0.50554l1.42412,6.10224C38.26299,29.10804,38.22027,29.24294,38.12057,29.29996z"/><path fill="#F9C73A" d="M19.36811,32.228c0.1682,0.09711,0.30879,0.30376,0.3583,0.51034l1.42624,6.09773
							c0.07649,0.32152-0.10615,0.49882-0.35619,0.35446l-8.65611-4.99761c-0.25459-0.14699-0.4311-0.53165-0.35757-0.76655
							l1.45609-4.43362c0.05051-0.14883,0.19635-0.19011,0.36001-0.09562L19.36811,32.228z"/><polygon fill="#F2BC36" points="29.997 21.802 29.86 21.882 29.422 21.629 29.181 21.77 29.572 21.996 29.437 22.075 29.045 21.848 28.683 22.059 28.534 21.973 29.411 21.464"/><path fill="#F2BC36" d="M30.12159 21.99221c-.045-.02598-.05166-.07191.00144-.10277.02292-.01332.05208-.02056.08759-.02178.03556.00117.06692.00723.08995.02054C30.40895 21.95078 30.24948 22.06605 30.12159 21.99221zM30.64977 22.71919l-.41002.23828-.14036-.08104.36632-.21288c.2758-.16028-.11123-.32369-.33938-.1911l-.36214.21045-.14246-.08225.66817-.38829.14246.08225-.12286.0714C30.61697 22.30648 30.97269 22.53153 30.64977 22.71919z"/><polygon fill="#F2BC36" points="29.276 22.401 29.944 22.013 30.085 22.094 29.416 22.482"/><path fill="#F2BC36" d="M31.33579 23.27434l-.52794-.30481c-.16613.11497.08292.29454.31681.27946l-.0057.09796c-.20172.00329-.53039-.09424-.5425-.29149-.00249-.07378.04721-.1415.15347-.20325.104-.06044.22075-.08945.35023-.08703.1295.00242.24038.0302.33256.08342.09009.05202.13847.1137.14933.18263C31.57949 23.16796 31.43622 23.19938 31.33579 23.27434zM30.91806 22.90549l.38548.22256c.18019-.10472.01559-.24253-.19559-.2601C31.03477 22.86193 30.97227 22.87399 30.91806 22.90549M25.80801 23.9796c-.06667.01933-.13138.03024-.18775.03145-.11483.0012-.21311-.02178-.29481-.06895-.07961-.04596-.13008-.10402-.14499-.17058l.15647-.01811c.00219.01814.01281.03866.02954.06049.01482.02294.03375.04107.0547.05316.06704.03871.13803.05327.2153.04477.07513-.00725.15219-.03262.2292-.07737-.03753.0024-.08351-.00243-.13363-.01213-.05227-.00846-.09833-.02538-.13813-.04836-.06704-.03871-.10068-.08468-.10308-.13669.00174-.05198.03708-.09921.10992-.14154C26.02014 23.25199 26.63626 23.73203 25.80801 23.9796zM25.86741 23.76063c.37932.01817.11553-.35354-.14728-.20081-.03749.02179-.05823.04841-.06013.07621-.00196.03027.01903.05691.06302.0823C25.76701 23.74374 25.81313 23.7582 25.86741 23.76063M28.47445 25.0561c-.03516.04956-.08916.09792-.16617.14268-.07702.04476-.14998.07746-.2188.09803-.06667.01933-.13139.03024-.18776.03144-.11483.00121-.2131-.02177-.29481-.06895-.07962-.04597-.13007-.10401-.14499-.17058l.15647-.01812c.01487.1232.24809.24415.52875.08105-.03754.0024-.08352-.00244-.13364-.01214-.05227-.00846-.09833-.02538-.13813-.04836-.06705-.03871-.10069-.08469-.10308-.13669.00173-.05198.03707-.09921.10991-.14154.07487-.04351.15618-.06406.25231-.06168.09189.00243.17766.02539.25099.06773C28.50701 24.88913 28.53451 24.9678 28.47445 25.0561zM28.14888 25.07783c.07676.00368.19485-.0337.18937-.11005.00434-.07485-.1248-.1197-.2012-.12336-.07317-.00171-.19603.04029-.19559.10881-.00196.03027.01902.0569.06301.0823C28.04848 25.06094 28.09459 25.0754 28.14888 25.07783M27.3126 24.9061c.02095.0121.03359.02659.03365.04598.00009.01693-.01027.03266-.03308.04592-.02089.01214-.04802.01819-.07928.01937-.03133-.00121-.05854-.00724-.07949-.01934C27.05233 24.93911 27.20405 24.84342 27.3126 24.9061zM27.52122 24.50575c-.20063.30803-.92209.39273-1.01253.03263l.15856-.01691c.01428.11831.23315.24376.52875.08105-.71054.02133-.2704-.62642.23836-.33268C27.55377 24.33878 27.58337 24.41866 27.52122 24.50575zM27.19565 24.52748c.07931.00548.19209-.02998.19147-.10884.0019-.03265-.02118-.0605-.06308-.08469C27.04821 24.1747 26.80128 24.50984 27.19565 24.52748"/><path fill="#F2BC36" d="M25.99166 24.32673c-.08171-.04717-.13008-.10402-.14709-.17179l.15857-.0169c.00055.1032.22989.2523.52665.07984-.69534.04437-.28646-.63569.24044-.33148C27.15989 24.11137 26.39724 24.56089 25.99166 24.32673zM26.53153 24.14406c.36649.02533.13421-.36439-.14728-.2008C26.24812 24.02237 26.37372 24.13698 26.53153 24.14406M31.26678 24.00372l.20951.12096-1.37167.79713-.20951-.12096.14781-.0859c-.28111.02751-.69056-.10413-.68704-.37011-.0016-.2645.45613-.42944.74101-.42577.18586.00121.34681.04115.4788.11736.13199.0762.18271.17051.15199.28058L31.26678 24.00372zM30.07156 24.60366c.3592-.00375.62893-.28548.35037-.44632-.28798-.16627-.77673-.00964-.77571.20323C29.65235 24.53052 29.89965 24.60727 30.07156 24.60366"/><polygon fill="#F2BC36" points="30.226 23.403 28.854 24.2 28.644 24.079 30.016 23.282"/><path fill="#F2BC36" d="M27.87144 23.64935c-.69712-.40248.32664-.98565 1.01359-.58904C29.57591 23.4592 28.56423 24.04934 27.87144 23.64935zM28.37034 23.61911c.55388.00005.65042-.52887.01579-.52856C27.79038 23.09645 27.76012 23.62516 28.37034 23.61911M27.96746 22.15432c.18855.10886.28949.2298.3048.3641l-.28377.02899c-.00658-.05443-.02772-.10038-.0635-.14027-.03566-.03995-.08608-.07861-.15522-.11853-.13198-.0762-.28248-.11495-.45794-.11735-.17331-.00364-.32977.03632-.46709.11611-.13743.07986-.20376.16938-.20109.26733.00477.09917.06785.18386.19146.25522.12361.07136.25337.11488.38922.13301l.35593-.20684.21998.127-.44334.25764c-.25686.00607-.49946-.05681-.72782-.18865-.19274-.11128-.29161-.24071-.29452-.38707-.00296-.14875.09029-.27819.28181-.38949.19355-.11248.41874-.1681.67979-.16691C27.5551 21.99107 27.78101 22.04667 27.96746 22.15432z"/><polygon fill="#F2BC36" points="16.702 27.935 15.685 28.526 15.522 28.432 16.385 27.93 16.178 27.811 16.332 27.721"/><polygon fill="#F2BC36" points="18.504 27.948 18.023 28.228 17.934 28.177 18.013 27.814 17.661 28.019 17.579 27.971 18.06 27.692 18.142 27.739 18.064 28.109 18.422 27.901"/><path fill="#F2BC36" d="M17.5443 28.55963c-.02572.09506-.11867.18914-.27905.28234-.16028.09315-.32248.14735-.48651.16256-.16563.01614-.31849-.01711-.45844-.09791-.1383-.07985-.19621-.16829-.16889-.26428.02572-.09506.11876-.18919.27904-.28234.16037-.0932.32249-.14734.48651-.16255.16571-.01619.31849.01711.4568.09696C17.51372 28.37521 17.5717 28.46359 17.5443 28.55963zM16.75993 28.87049c.1099-.01808.22125-.0599.33573-.12644.11458-.06658.18641-.13122.21558-.19395.03077-.06366.00264-.1198-.08463-.17018-.08562-.04943-.18262-.06555-.29408-.04846-.1099.01808-.22289.05895-.33578.12455-.11289.06561-.18307.13119-.21384.19486-.02921.06466-.00099.12075.08463.17018C16.5548 28.87143 16.65172 28.88759 16.75993 28.87049M20.2982 30.29354l.16466.09507-.67397.39167c-.13747.07989-.27838.1179-.41957.11412-.14443-.00381-.27428-.03899-.39118-.10648-.11691-.06749-.18625-.14927-.20818-.24717l.20004-.0266c.0185.07699.06811.13782.14549.1825.07738.04468.15957.0694.24335.07222.08693.00289.17055-.0209.25886-.07222l.09815-.05704c-.06885.0133-.13946.01428-.21334.00381-.07229-.0114-.13638-.03329-.19236-.06561-.10373-.05989-.15176-.12926-.14889-.20914.00612-.07985.06318-.15116.1695-.21295.10632-.06179.22915-.09502.36539-.0979.13949-.00285.25949.02469.36323.08458.10208.05894.14346.13218.12425.21773L20.2982 30.29354zM19.7121 30.56166c.08536-.00192.16241-.0219.22941-.06084.0655-.03806.10134-.08368.10597-.13406.00298-.05133-.02845-.09601-.09431-.13403-.06587-.03803-.14145-.05514-.22845-.05036-.08691.00472-.16232.02566-.22613.06274-.06372.03703-.09801.07985-.10589.1302-.00628.04943.02352.09315.09102.13213C19.54959 30.54546 19.62683 30.56353 19.7121 30.56166M19.55802 29.72225c-.02572.09506-.11867.18914-.27905.28234-.16028.09315-.32248.14735-.48651.16256-.16563.01613-.31849-.01711-.45845-.09792-.1383-.07985-.1962-.16828-.16888-.26427.02572-.09506.11876-.18919.27905-.28234.16037-.0932.32248-.14735.48651-.16256.16572-.01619.31849.01711.45679.09696C19.52744 29.53783 19.58542 29.62621 19.55802 29.72225zM18.77364 30.03311c.1099-.01808.22125-.0599.33574-.12643.11458-.06659.18641-.13122.21558-.19395.03078-.06367.00265-.1198-.08463-.17018-.08562-.04943-.18262-.06555-.29407-.04846-.1099.01808-.22289.05895-.33578.12456-.11289.06561-.18307.13119-.21385.19485-.02922.06466-.00099.12075.08462.17018C18.56852 30.03405 18.66543 30.05021 18.77364 30.03311"/><polygon fill="#F2BC36" points="20.75 29.245 20.677 29.288 20.53 29.203 20.123 29.44 20.042 29.393 20.449 29.157 20.303 29.072 20.376 29.029"/><polygon fill="#F2BC36" points="20.347 29.012 19.696 29.194 19.616 29.147 19.844 28.896 19.839 28.893 19.406 29.026 19.326 28.98 19.639 28.603 19.726 28.654 19.503 28.925 19.955 28.786 20.029 28.829 19.791 29.091 20.258 28.961"/><polygon fill="#F2BC36" points="19.42 28.477 19.346 28.52 19.2 28.435 18.792 28.672 18.71 28.624 19.117 28.388 18.971 28.303 19.044 28.26"/><path fill="#F2BC36" d="M18.55034,29.14047c-0.02572,0.09506-0.11868,0.18914-0.27905,0.28233
							c-0.16028,0.09315-0.32248,0.14735-0.48651,0.16256c-0.16563,0.01613-0.31684-0.01616-0.4568-0.09697
							c-0.13996-0.0808-0.19621-0.16829-0.16889-0.26428c0.02572-0.09506,0.11877-0.18919,0.27905-0.28233
							c0.16037-0.0932,0.32248-0.14735,0.4865-0.16256c0.16572-0.01619,0.31684,0.01616,0.4568,0.09696
							C18.5214,28.95699,18.57774,29.04443,18.55034,29.14047z M17.76596,29.45132c0.1099-0.01808,0.22125-0.0599,0.33573-0.12644
							c0.11458-0.06658,0.18641-0.13122,0.21558-0.19395c0.03077-0.06366,0.00264-0.1198-0.08298-0.16923
							c-0.08562-0.04943-0.18427-0.0665-0.29408-0.04847c-0.11154,0.01714-0.22288,0.05895-0.33577,0.12456
							c-0.11289,0.06561-0.18472,0.13024-0.21385,0.19485c-0.03086,0.06372-0.00099,0.12075,0.08463,0.17019
							S17.65775,29.46843,17.76596,29.45132"/><polygon fill="#F2BC36" points="18.977 28.221 18.9 28.266 18.643 28.118 18.517 28.191 18.748 28.324 18.676 28.366 18.445 28.233 18.316 28.308 18.581 28.461 18.504 28.505 18.157 28.305 18.638 28.025"/><polygon fill="#FFF" points="33.779 24.138 33.944 24.695 33.603 24.225 32.991 25.352 33.191 24.085 32.634 24.251 33.104 23.909 31.977 23.297 33.243 23.497 33.078 22.94 33.42 23.41 34.032 22.283 33.832 23.549 34.389 23.384 33.919 23.726 35.046 24.338"/><polygon fill="#FFF" points="20.174 32.459 20.255 32.733 20.087 32.502 19.786 33.055 19.885 32.433 19.611 32.514 19.842 32.346 19.288 32.046 19.91 32.144 19.829 31.87 19.997 32.101 20.298 31.548 20.199 32.17 20.473 32.089 20.242 32.257 20.796 32.557"/><g><path fill="#FED44C" d="M47.19896,28.84811l-17.0681,9.91185l-5.76773-3.33258
							c-0.09966-0.05702-0.19935-0.06397-0.26346-0.02121l17.06102-9.91915c0.07119-0.03581,0.16376-0.02851,0.27059,0.02851
							L47.19896,28.84811z"/><path fill="#F2BC36" d="M48.88654,35.83313l-17.06097,9.91915c0.09257-0.05702,0.13529-0.19227,0.09257-0.38454
							l-1.42412-6.09529c-0.04985-0.20653-0.19227-0.41305-0.36316-0.51249l17.0681-9.91185
							c0.1638,0.09248,0.30618,0.29901,0.35603,0.50554l1.42412,6.10225C49.02896,35.6412,48.98624,35.7761,48.88654,35.83313z"/><path fill="#F9C73A" d="M30.13407,38.76117c0.1682,0.09711,0.30879,0.30376,0.3583,0.51033l1.42624,6.09774
							c0.07649,0.32152-0.10615,0.49882-0.35619,0.35446l-8.65611-4.99761c-0.25459-0.14699-0.4311-0.53165-0.35757-0.76655
							l1.45609-4.43362c0.05051-0.14883,0.19634-0.19011,0.36001-0.09562L30.13407,38.76117z"/><polygon fill="#F2BC36" points="40.763 28.335 40.626 28.415 40.188 28.163 39.947 28.303 40.338 28.529 40.203 28.608 39.811 28.381 39.449 28.592 39.3 28.506 40.177 27.997"/><path fill="#F2BC36" d="M41.10228 28.47341c.00011.02178-.01229.03869-.03521.05202-.02495.0145-.05411.02174-.08968.02056-.0355.00121-.0647-.00609-.08984-.0206-.02304-.0133-.03576-.0302-.03586-.05197-.00005-.01939.01235-.0363.0373-.0508.02292-.01332.05208-.02056.08759-.02177.03556.00117.06692.00723.08995.02053C41.09167 28.43588 41.10223 28.45402 41.10228 28.47341zM41.43078 28.94995c.07542.04354.11535.09315.11356.14759.00035.05319-.04322.10521-.12859.15482l-.41002.23828-.14037-.08104.36632-.21288c.12275-.07133.13282-.13786.03016-.19713-.04819-.02782-.10669-.04236-.1777-.04478-.06678-.00245-.13142.0157-.19184.05081l-.36214.21045-.14246-.08225.66817-.38829.14246.08225-.12286.0714c.06262-.01212.12521-.01209.18997-.00361C41.33025 28.90643 41.38469 28.92334 41.43078 28.94995z"/><polygon fill="#F2BC36" points="40.042 28.934 40.71 28.546 40.851 28.627 40.182 29.015"/><path fill="#F2BC36" d="M42.1974 29.75192l-.09565.05558-.52794-.30481c-.04369.03024-.06028.06659-.04961.1065.01074.0423.04435.07859.09673.10883.0838.04838.17573.07019.26969.06413l-.0057.09796c-.1461.00239-.27787-.03026-.39518-.09799-.09428-.05443-.14272-.11851-.14732-.1935-.00249-.07378.04721-.1415.15348-.20325.104-.06044.22075-.08945.35023-.08703.12949.00242.24038.0302.33256.08342.09009.05201.13847.1137.14933.18263C42.33666 29.63217 42.2953 29.69503 42.1974 29.75192zM41.68403 29.43865l.38548.22256c.05624-.03268.08319-.06775.07671-.10525s-.03377-.0726-.08405-.10163c-.05237-.03024-.11517-.04714-.18824-.05322C41.80074 29.3951 41.73823 29.40715 41.68403 29.43865M36.95895 30.27206c-.03516.04956-.08916.09793-.16617.14268-.07701.04476-.14999.07746-.21881.09803-.06667.01933-.13138.03024-.18775.03145-.11483.0012-.21312-.02178-.29482-.06895-.07961-.04596-.13008-.10401-.14499-.17058l.15647-.01811c.00219.01814.01281.03866.02954.06049.01482.02294.03375.04107.0547.05316.06704.03871.13803.05327.2153.04477.07513-.00725.15218-.03262.22919-.07737-.03753.0024-.08351-.00243-.13363-.01213-.05227-.00846-.09833-.02538-.13814-.04836-.06704-.03871-.10067-.08468-.10308-.13669.00174-.05197.03708-.09921.10992-.14154.07487-.04351.15618-.06406.25231-.06168.09188.00243.17766.02539.25098.06772C36.9915 30.10509 37.019 30.18376 36.95895 30.27206zM36.63338 30.29379c.05016.0024.09599-.00724.13348-.02903.03952-.02297.05823-.0484.05589-.08102.0019-.03266-.01908-.05929-.06309-.0847-.04189-.02419-.08795-.03626-.13811-.03866-.05219-.00122-.09593.00963-.13546.0326-.03749.02179-.05823.04841-.06013.07621-.00196.03027.01903.05691.06301.0823C36.53297 30.27691 36.57909 30.29136 36.63338 30.29379M39.24042 31.58926c-.03516.04956-.08916.09792-.16617.14268-.07702.04476-.14999.07746-.2188.09803-.06667.01933-.13139.03024-.18776.03144-.11483.00121-.2131-.02177-.29481-.06895-.07962-.04597-.13007-.10401-.14499-.17058l.15647-.01812c.00219.01814.01281.03867.02954.0605.01482.02294.03375.04106.0547.05316.06704.03871.13803.05327.21531.04477.07512-.00725.15219-.03262.2292-.07737-.03754.0024-.08352-.00243-.13364-.01214-.05227-.00846-.09833-.02538-.13813-.04836-.06705-.03871-.10069-.08469-.10308-.13669.00173-.05198.03707-.09921.10991-.14154.07487-.04351.15618-.06406.25231-.06168.09189.00243.17766.02539.25099.06773C39.27298 31.4223 39.30047 31.50097 39.24042 31.58926zM38.91484 31.611c.05016.0024.09599-.00725.13348-.02903.03952-.02297.05824-.0484.0559-.08102.00189-.03266-.02118-.0605-.06308-.08469-.04191-.02419-.08796-.03626-.13811-.03866-.05219-.00122-.09593.00963-.13545.0326-.03749.02179-.06033.04719-.06014.07621-.00196.03027.01902.0569.06301.0823S38.86055 31.60857 38.91484 31.611M38.07857 31.43926c.02095.01209.03359.02659.03364.04598.0001.01693-.01027.03266-.03308.04592-.02089.01214-.04802.01819-.07928.01938-.03133-.00121-.05854-.00724-.07949-.01934-.02304-.01331-.03354-.02905-.03365-.04598.00194-.01811.0123-.03385.03319-.04599.02281-.01326.04994-.01931.07917-.01931C38.03046 31.41868 38.05552 31.42596 38.07857 31.43926zM38.28719 31.03892c-.03307.05077-.08915.09793-.16616.14268-.07701.04476-.14999.07745-.21881.09803-.06667.01933-.12929.03145-.18776.03144-.11483.00121-.21101-.02057-.29271-.06774-.08171-.04718-.13007-.10401-.14709-.17179l.15856-.01691c.00219.01814.01072.03746.02745.05929.01481.02294.03374.04107.0547.05316.06704.03871.13803.05327.2174.04598.07512-.00725.15009-.03383.2292-.07737-.03963.00119-.08353-.00244-.13364-.01214-.05227-.00846-.09833-.02538-.14023-.04957-.06705-.03871-.10068-.08469-.10098-.13548-.00035-.05318.03498-.10042.10782-.14275.07487-.04351.15826-.06286.2523-.06169.09399.00364.17767.02539.25309.06894C38.31974 30.87195 38.34934 30.95183 38.28719 31.03892zM37.96161 31.06065c.05225.00361.09808-.00604.13557-.02782.03952-.02297.05614-.04961.0559-.08102.0019-.03265-.02118-.0605-.06308-.08469-.0419-.02419-.09005-.03747-.14021-.03987-.05219-.00122-.09592.00963-.13545.0326-.03749.02179-.05823.0484-.05805.07742-.00406.02906.01902.0569.06092.08109C37.86121 31.04376 37.90733 31.05822 37.96161 31.06065M37.62307 30.65549c-.03307.05077-.08916.09792-.16617.14268-.07702.04476-.14999.07746-.2188.09803-.06667.01933-.13138.03024-.18775.03145-.11483.0012-.21311-.02178-.29272-.06774-.08171-.04717-.13008-.10402-.14709-.17179l.15857-.0169c.00009.01693.01072.03745.02745.05928.01482.02294.03374.04106.0547.05316.06704.03871.13803.05327.21531.04477.07512-.00725.15219-.03262.2292-.07737-.03754.0024-.08143-.00123-.13364-.01214-.05227-.00846-.09623-.02417-.13814-.04836-.06704-.0387-.10068-.08468-.10307-.13669.00173-.05198.03707-.09921.10991-.14154.07487-.04351.15828-.06285.25232-.06168.09398.00364.17766.02539.25307.06893C37.65561 30.48852 37.68522 30.5684 37.62307 30.65549zM37.29749 30.67723c.05226.00361.09809-.00603.13558-.02782.03952-.02297.05614-.04961.05589-.08102-.00019-.03386-.02118-.0605-.06309-.0847-.04189-.02419-.09004-.03747-.1402-.03987-.05219-.00122-.09593.00963-.13545.0326-.03749.02179-.05823.0484-.05804.07742-.00406.02906.01693.05569.06092.08109S37.24321 30.67479 37.29749 30.67723M42.03275 30.53689l.20951.12096-1.37167.79713-.20951-.12096.14782-.0859c-.1858.01818-.35093-.0145-.49967-.10037-.1257-.07257-.18879-.16211-.18737-.26974-.00066-.10883.07611-.20684.23014-.29635.15188-.08826.32292-.13184.51088-.12942.18586.00121.34681.04115.4788.11736.13198.0762.18271.1705.15199.28058L42.03275 30.53689zM40.83752 31.13683c.11484-.0012.22118-.02902.31479-.08343.09373-.05447.14345-.11733.14933-.18629.00588-.06895-.03204-.12943-.11375-.1766-.0838-.04838-.18834-.07015-.31154-.06894-.12111.00242-.22949.03142-.32322.08589-.09361.0544-.14128.11609-.14095.18628.00249.06894.04459.12699.12629.17417C40.62227 31.1163 40.72054 31.13928 40.83752 31.13683"/><polygon fill="#F2BC36" points="40.992 29.936 39.62 30.733 39.41 30.612 40.782 29.815"/><path fill="#F2BC36" d="M39.8762 29.89462c.00056.11374-.06987.21292-.21136.29515-.14149.08223-.31249.12335-.50885.1234-.19626-.00002-.36983-.04477-.51858-.13065s-.22447-.18507-.22724-.29995c-.00057-.11375.06987-.21293.21136-.29515.14149-.08223.31249-.12335.50887-.12339.19835.00123.37186.04358.52061.12946C39.79974 29.67936 39.87553 29.78094 39.8762 29.89462zM39.1363 30.15228c.11694.00001.22328-.02781.31904-.08346.09576-.05565.14344-.11734.14508-.18625-.00028-.06779-.04453-.12945-.13462-.18146-.09008-.05201-.19667-.07744-.31371-.07738-.11897.00117-.22531.029-.32107.08465-.09576.05565-.14344.11734-.14305.18507-.00164.06891.0425.13063.13259.18264C38.91064 30.12809 39.01734 30.15346 39.1363 30.15228M38.73343 28.68748c.18855.10886.28949.2298.3048.3641l-.28377.029c-.00658-.05443-.02772-.10038-.0635-.14027-.03566-.03995-.08608-.07861-.15522-.11853-.13198-.0762-.28249-.11495-.45794-.11735-.17331-.00365-.32977.03631-.46709.11611-.13743.07986-.20376.16938-.20109.26733.00477.09917.06785.18386.19146.25522.12361.07137.25337.11489.38922.13301l.35593-.20685.21998.127-.44334.25764c-.25686.00607-.49946-.05682-.72782-.18866-.19274-.11128-.29161-.2407-.29451-.38707-.00296-.14875.09029-.27819.28181-.38949.19355-.11248.41874-.1681.67979-.16691C38.32106 28.52423 38.54697 28.57983 38.73343 28.68748z"/><polygon fill="#F2BC36" points="27.468 34.468 26.451 35.06 26.288 34.965 27.151 34.463 26.944 34.344 27.098 34.254"/><polygon fill="#F2BC36" points="29.27 34.482 28.789 34.761 28.7 34.71 28.779 34.347 28.427 34.552 28.345 34.504 28.826 34.225 28.908 34.272 28.83 34.642 29.188 34.434"/><path fill="#F2BC36" d="M28.31026 35.0928c-.02572.09506-.11867.18914-.27905.28233-.16028.09314-.32248.14735-.48651.16256-.16563.01614-.31849-.01711-.45844-.09791-.13831-.07985-.19621-.16829-.16889-.26428.02572-.09506.11876-.18919.27904-.28234.16037-.0932.32249-.14734.48651-.16256.16572-.01619.31849.01711.4568.09697C28.27968 34.90837 28.33767 34.99676 28.31026 35.0928zM27.52589 35.40366c.10989-.01809.22124-.05991.33573-.12644.11458-.06659.18641-.13122.21558-.19395.03077-.06366.00264-.1198-.08463-.17018-.08562-.04943-.18262-.06555-.29408-.04847-.1099.01809-.22289.05895-.33578.12455-.11289.06561-.18307.13119-.21384.19486-.02921.06466-.00099.12075.08463.17018C27.32076 35.40459 27.41768 35.42076 27.52589 35.40366M31.06417 36.8267l.16466.09507-.67397.39167c-.13747.07989-.27838.1179-.41957.11412-.14443-.00381-.27428-.03899-.39118-.10648-.11691-.06749-.18625-.14928-.20818-.24717l.20004-.0266c.0185.07699.06811.13782.14549.1825.07738.04468.15957.0694.24334.07222.08693.00289.17055-.0209.25886-.07222l.09815-.05704c-.06885.0133-.13946.01428-.21334.00381-.07229-.0114-.13638-.03329-.19236-.06561-.10374-.05989-.15176-.12926-.14889-.20914.00612-.07985.06318-.15116.1695-.21295.10632-.06179.22915-.09502.36539-.0979.13949-.00285.25949.02469.36323.08458.10208.05894.14346.13218.12425.21773L31.06417 36.8267zM30.47806 37.09483c.08536-.00192.16241-.0219.22941-.06084.0655-.03807.10134-.08369.10597-.13406.00299-.05133-.02845-.09601-.09431-.13403-.06587-.03803-.14145-.05514-.22845-.05037-.08691.00473-.16232.02566-.22613.06274-.06372.03703-.09801.07985-.10589.1302-.00628.04943.02352.09315.09102.13213C30.31556 37.07863 30.39279 37.09669 30.47806 37.09483M30.32398 36.25542c-.02572.09506-.11867.18914-.27905.28233-.16028.09315-.32248.14735-.48651.16256-.16563.01613-.31849-.01711-.45845-.09792-.1383-.07985-.1962-.16828-.16888-.26427.02572-.09506.11876-.18919.27905-.28233.16037-.0932.32248-.14735.48651-.16256.16572-.01619.31849.01711.45679.09696C30.2934 36.071 30.35138 36.15938 30.32398 36.25542zM29.53961 36.56627c.1099-.01808.22125-.0599.33574-.12643.11458-.06659.18641-.13122.21558-.19396.03077-.06366.00264-.11979-.08463-.17018-.08562-.04943-.18262-.06554-.29407-.04846-.1099.01808-.22289.05895-.33578.12455-.11289.06561-.18307.13119-.21385.19485-.02922.06466-.00099.12075.08462.17018C29.33449 36.56722 29.4314 36.58338 29.53961 36.56627"/><polygon fill="#F2BC36" points="31.516 35.778 31.443 35.821 31.296 35.736 30.889 35.973 30.808 35.926 31.215 35.69 31.069 35.605 31.142 35.562"/><polygon fill="#F2BC36" points="31.113 35.545 30.462 35.727 30.382 35.68 30.61 35.429 30.605 35.426 30.172 35.56 30.092 35.513 30.405 35.136 30.492 35.187 30.269 35.458 30.721 35.319 30.795 35.362 30.557 35.624 31.024 35.494"/><polygon fill="#F2BC36" points="30.186 35.01 30.112 35.053 29.966 34.968 29.558 35.205 29.476 35.157 29.883 34.921 29.737 34.836 29.81 34.793"/><path fill="#F2BC36" d="M29.3163,35.67364c-0.02572,0.09506-0.11868,0.18913-0.27905,0.28233
							c-0.16028,0.09314-0.32248,0.14735-0.48651,0.16256c-0.16563,0.01614-0.31684-0.01616-0.4568-0.09697
							c-0.13996-0.0808-0.19621-0.16829-0.16889-0.26427c0.02572-0.09506,0.11877-0.18919,0.27905-0.28233
							c0.16037-0.0932,0.32248-0.14735,0.4865-0.16256c0.16572-0.01619,0.31684,0.01616,0.4568,0.09696
							C29.28737,35.49016,29.3437,35.57759,29.3163,35.67364z M28.53193,35.98449c0.1099-0.01808,0.22125-0.0599,0.33573-0.12643
							c0.11458-0.06659,0.18641-0.13122,0.21558-0.19395c0.03077-0.06366,0.00264-0.1198-0.08298-0.16923
							c-0.08562-0.04943-0.18427-0.06649-0.29408-0.04847c-0.11154,0.01714-0.22289,0.05896-0.33578,0.12456
							c-0.11289,0.06561-0.18472,0.13024-0.21385,0.19485c-0.03086,0.06372-0.00099,0.12075,0.08463,0.17019
							C28.3268,35.98543,28.42372,36.00159,28.53193,35.98449"/><polygon fill="#F2BC36" points="29.743 34.754 29.666 34.799 29.409 34.651 29.283 34.724 29.514 34.857 29.442 34.899 29.211 34.766 29.082 34.841 29.347 34.994 29.27 35.039 28.923 34.838 29.404 34.559"/><polygon fill="#FFF" points="44.545 30.671 44.71 31.228 44.369 30.758 43.757 31.885 43.957 30.618 43.4 30.784 43.87 30.442 42.743 29.83 44.009 30.03 43.844 29.473 44.186 29.943 44.798 28.816 44.598 30.083 45.155 29.917 44.685 30.259 45.812 30.871"/><polygon fill="#FFF" points="30.94 38.992 31.021 39.266 30.853 39.035 30.552 39.588 30.651 38.966 30.377 39.047 30.608 38.879 30.054 38.579 30.676 38.677 30.595 38.404 30.763 38.634 31.064 38.081 30.965 38.703 31.239 38.622 31.008 38.79 31.562 39.09"/></g><g><path fill="#FED44C" d="M31.82907,11.7733l-17.0681,9.91184l-5.76773-3.33257
							c-0.09966-0.05702-0.19936-0.06397-0.26346-0.02121L25.7908,8.41221c0.07119-0.03581,0.16376-0.02851,0.27059,0.02851
							L31.82907,11.7733z"/><path fill="#F2BC36" d="M33.51665,18.75832l-17.06098,9.91915c0.09257-0.05702,0.13529-0.19227,0.09257-0.38454
							l-1.42412-6.09529c-0.04985-0.20653-0.19227-0.41305-0.36316-0.51249l17.0681-9.91184
							c0.1638,0.09248,0.30618,0.29901,0.35603,0.50554l1.42413,6.10224C33.65907,18.5664,33.61635,18.7013,33.51665,18.75832z"/><path fill="#F9C73A" d="M14.76419,21.68636c0.1682,0.09711,0.30879,0.30376,0.3583,0.51034l1.42624,6.09773
							c0.07649,0.32152-0.10615,0.49882-0.35619,0.35446l-8.65611-4.99761c-0.25459-0.14699-0.4311-0.53165-0.35757-0.76655
							l1.45609-4.43362c0.05051-0.14883,0.19635-0.19011,0.36001-0.09562L14.76419,21.68636z"/><polygon fill="#F2BC36" points="25.393 11.261 25.256 11.341 24.818 11.088 24.577 11.228 24.968 11.454 24.833 11.533 24.441 11.307 24.079 11.517 23.93 11.431 24.807 10.922"/><path fill="#F2BC36" d="M25.73239 11.3986c.00011.02178-.01229.03869-.03521.05201-.02495.0145-.05411.02174-.08968.02056-.0355.00122-.0647-.00609-.08984-.0206-.02304-.0133-.03576-.0302-.03586-.05197-.00005-.01939.01235-.0363.0373-.0508.02292-.01332.05208-.02056.08759-.02178.03556.00117.06692.00723.08995.02054C25.72178 11.36107 25.73235 11.37921 25.73239 11.3986zM26.06089 11.87514c.07542.04354.11535.09315.11356.14758.00036.05319-.04322.10521-.12859.15482l-.41002.23828-.14037-.08104.36632-.21288c.12275-.07133.13282-.13786.03016-.19713-.04819-.02782-.10668-.04236-.1777-.04478-.06679-.00245-.13142.0157-.19184.05081l-.36214.21045-.14246-.08225.66817-.3883.14246.08225-.12286.0714c.06262-.01212.12521-.01209.18997-.00361C25.96036 11.83162 26.0148 11.84853 26.06089 11.87514z"/><polygon fill="#F2BC36" points="24.672 11.859 25.34 11.471 25.481 11.552 24.812 11.94"/><path fill="#F2BC36" d="M26.82751 12.67711l-.09565.05558-.52794-.3048c-.04369.03024-.06028.06659-.04961.1065.01074.0423.04435.07859.09673.10883.0838.04838.17573.07019.26969.06413l-.0057.09796c-.1461.00239-.27787-.03026-.39518-.09799-.09427-.05443-.14272-.11851-.14732-.1935-.00249-.07378.04721-.1415.15348-.20325.104-.06044.22075-.08945.35023-.08703.12949.00242.24038.0302.33256.08342.09009.05201.13847.1137.14933.18263C26.96677 12.55736 26.92542 12.62022 26.82751 12.67711zM26.31414 12.36385l.38548.22255c.05624-.03268.08319-.06775.07671-.10525-.00648-.03749-.03377-.0726-.08405-.10163-.05237-.03024-.11517-.04714-.18824-.05322C26.43085 12.32029 26.36834 12.33235 26.31414 12.36385M21.58906 13.19725c-.03516.04956-.08916.09792-.16617.14268-.07702.04476-.14999.07746-.21881.09803-.06667.01933-.13138.03024-.18775.03145-.11483.0012-.21311-.02178-.29481-.06895-.07961-.04596-.13008-.10402-.14499-.17058l.15647-.01811c.00218.01814.01281.03866.02954.06049.01482.02294.03375.04107.0547.05316.06704.03871.13803.05327.2153.04477.07513-.00725.15219-.03262.2292-.07737-.03753.0024-.08351-.00243-.13363-.01213-.05227-.00846-.09833-.02538-.13814-.04836-.06704-.03871-.10068-.08468-.10308-.13669.00174-.05197.03708-.09921.10992-.14154.07487-.04351.15618-.06406.25231-.06168.09188.00243.17766.02539.25098.06772C21.62161 13.03028 21.64912 13.10896 21.58906 13.19725zM21.26349 13.21899c.05016.0024.09599-.00724.13348-.02903.03952-.02297.05823-.0484.05589-.08102.0019-.03265-.01909-.05929-.06309-.0847-.04189-.02419-.08795-.03626-.13811-.03866-.05219-.00122-.09593.00963-.13546.0326-.03749.02179-.05823.04841-.06013.07621-.00196.03027.01903.05691.06302.0823C21.16308 13.2021 21.2092 13.21656 21.26349 13.21899M23.87053 14.51446c-.03516.04956-.08916.09792-.16617.14268-.07702.04476-.14998.07746-.2188.09803-.06667.01933-.13139.03024-.18776.03144-.11483.00121-.2131-.02178-.29481-.06895-.07962-.04597-.13007-.10401-.14499-.17058l.15647-.01812c.00219.01814.01282.03867.02955.06049.01482.02294.03375.04106.0547.05316.06704.03871.13803.05327.21531.04477.07512-.00725.15219-.03262.2292-.07737-.03754.0024-.08352-.00244-.13364-.01214-.05227-.00846-.09833-.02538-.13813-.04836-.06705-.03871-.10069-.08469-.10308-.13669.00173-.05198.03707-.09921.10991-.14154.07487-.04351.15618-.06406.25231-.06168.09189.00243.17766.02539.25099.06773C23.90309 14.34749 23.93058 14.42616 23.87053 14.51446zM23.54496 14.53619c.05016.0024.09599-.00725.13348-.02903.03952-.02297.05824-.0484.0559-.08102.00189-.03266-.02118-.0605-.06308-.08469-.04191-.02419-.08795-.03626-.13811-.03866-.05219-.00122-.09593.00963-.13545.0326-.03749.02179-.06033.04719-.06014.07621-.00196.03027.01902.0569.06302.0823S23.49067 14.53376 23.54496 14.53619M22.70868 14.36446c.02095.0121.03359.02659.03364.04598.0001.01693-.01027.03266-.03308.04592-.02089.01214-.04802.01819-.07928.01938-.03133-.00121-.05854-.00724-.07949-.01934-.02305-.0133-.03354-.02905-.03365-.04598.00194-.01811.0123-.03384.03319-.04599.02281-.01326.04994-.01931.07917-.01931C22.66057 14.34388 22.68564 14.35115 22.70868 14.36446zM22.9173 13.96411c-.03307.05077-.08915.09793-.16616.14268-.07702.04476-.15.07745-.21881.09803-.06667.01933-.12929.03145-.18776.03144-.11483.00121-.21101-.02057-.29271-.06774-.08171-.04718-.13007-.10401-.14709-.17179l.15856-.01691c.00219.01814.01072.03746.02745.05929.01481.02294.03375.04106.0547.05316.06704.03871.13803.05327.2174.04598.07512-.00725.15009-.03383.2292-.07737-.03963.00119-.08352-.00243-.13364-.01214-.05227-.00846-.09833-.02538-.14023-.04957-.06705-.03871-.10068-.08469-.10098-.13548-.00035-.05318.03499-.10042.10782-.14275.07487-.04351.15826-.06286.2523-.06169.09398.00364.17766.02539.25308.06894C22.94985 13.79714 22.97945 13.87702 22.9173 13.96411zM22.59173 13.98585c.05225.00361.09808-.00604.13557-.02782.03952-.02297.05614-.04961.0559-.08102.0019-.03266-.02118-.0605-.06308-.08469-.0419-.02419-.09005-.03747-.14021-.03987-.05219-.00122-.09593.00963-.13545.0326-.03749.02179-.05823.0484-.05805.07742-.00406.02906.01902.0569.06092.08109C22.49132 13.96896 22.53745 13.98342 22.59173 13.98585M22.25318 13.58068c-.03307.05077-.08916.09792-.16617.14268-.07702.04476-.14998.07746-.2188.09803-.06667.01933-.13138.03024-.18775.03145-.11483.0012-.21311-.02178-.29272-.06774-.08171-.04717-.13008-.10402-.14709-.17179l.15857-.0169c.00009.01693.01072.03745.02744.05928.01482.02294.03375.04106.0547.05316.06704.0387.13803.05327.21531.04477.07512-.00725.15219-.03262.2292-.07737-.03755.0024-.08143-.00123-.13364-.01214-.05227-.00846-.09623-.02417-.13814-.04836-.06704-.0387-.10068-.08468-.10307-.13669.00173-.05198.03707-.09921.10991-.14154.07487-.04351.15828-.06285.25232-.06168.09398.00364.17766.02539.25307.06893C22.28573 13.41371 22.31533 13.49359 22.25318 13.58068zM21.92761 13.60242c.05226.00361.09809-.00603.13558-.02782.03952-.02297.05614-.04961.05589-.08102-.0002-.03386-.02118-.0605-.06309-.0847-.04189-.02419-.09004-.03747-.1402-.03987-.05219-.00122-.09593.00963-.13545.0326-.03749.02179-.05823.0484-.05804.07742-.00406.02906.01693.05569.06092.08109C21.8272 13.58553 21.87332 13.59998 21.92761 13.60242M26.66286 13.46208l.20951.12096-1.37167.79713-.20951-.12096.14781-.0859c-.1858.01818-.35093-.0145-.49967-.10037-.1257-.07257-.18879-.16211-.18737-.26974-.00066-.10883.07611-.20684.23014-.29635.15188-.08826.32292-.13184.51088-.12942.18586.00121.34681.04115.4788.11736.13198.0762.18271.1705.15199.28058L26.66286 13.46208zM25.46763 14.06202c.11484-.0012.22117-.02902.31479-.08342.09373-.05447.14345-.11734.14933-.18629.00588-.06895-.03204-.12943-.11375-.1766-.0838-.04838-.18834-.07015-.31154-.06894-.12111.00242-.22949.03142-.32322.08589-.09361.0544-.14129.11609-.14095.18628.00249.06894.04458.12699.12629.17417C25.25238 14.04149 25.35065 14.06448 25.46763 14.06202"/><polygon fill="#F2BC36" points="25.622 12.861 24.25 13.658 24.04 13.537 25.412 12.74"/><path fill="#F2BC36" d="M24.50632 12.81981c.00056.11374-.06987.21292-.21136.29515-.14149.08223-.31249.12335-.50886.12339-.19626-.00002-.36983-.04477-.51858-.13065-.14875-.08588-.22447-.18507-.22724-.29995-.00057-.11375.06986-.21293.21136-.29516.14149-.08223.31249-.12335.50886-.12339.19835.00123.37186.04358.52061.12946C24.42985 12.60455 24.50564 12.70613 24.50632 12.81981zM23.76641 13.07747c.11693.00001.22328-.02781.31904-.08346.09576-.05565.14344-.11734.14508-.18625-.00028-.06779-.04453-.12945-.13461-.18146-.09008-.05201-.19667-.07744-.31371-.07738-.11896.00118-.22531.029-.32107.08465-.09575.05565-.14344.11734-.14305.18507-.00164.06891.0425.13063.13259.18264C23.54076 13.05328 23.64746 13.07865 23.76641 13.07747M23.36354 11.61267c.18855.10886.2895.2298.3048.3641l-.28377.02899c-.00658-.05443-.02772-.10038-.0635-.14027-.03566-.03995-.08608-.07861-.15522-.11853-.13198-.0762-.28248-.11495-.45794-.11735-.17331-.00365-.32977.03632-.46709.11611-.13743.07986-.20376.16938-.20109.26733.00477.09917.06785.18386.19146.25522.12361.07136.25337.11488.38922.13301l.35593-.20685.21998.127-.44333.25764c-.25686.00607-.49946-.05682-.72782-.18865-.19274-.11128-.29161-.2407-.29452-.38707-.00296-.14875.09029-.27819.28181-.38949.19355-.11248.41874-.1681.67979-.16691C22.95118 11.44943 23.17708 11.50503 23.36354 11.61267z"/><polygon fill="#F2BC36" points="12.098 17.393 11.081 17.985 10.918 17.891 11.781 17.389 11.574 17.269 11.728 17.18"/><polygon fill="#F2BC36" points="13.9 17.407 13.419 17.686 13.331 17.635 13.409 17.273 13.057 17.477 12.975 17.43 13.456 17.15 13.538 17.198 13.46 17.567 13.818 17.359"/><path fill="#F2BC36" d="M12.94038 18.01799c-.02572.09506-.11867.18914-.27905.28234-.16028.09314-.32248.14735-.48651.16256-.16563.01614-.31849-.01711-.45844-.09791-.1383-.07985-.19621-.16829-.16889-.26428.02572-.09506.11876-.18919.27904-.28234.16037-.0932.32249-.14734.48651-.16255.16571-.01619.31849.01711.4568.09696C12.9098 17.83357 12.96778 17.92195 12.94038 18.01799zM12.156 18.32885c.10989-.01808.22125-.0599.33573-.12644.11458-.06659.18641-.13122.21558-.19395.03077-.06366.00264-.1198-.08463-.17018-.08562-.04943-.18262-.06554-.29408-.04846-.10989.01808-.22289.05895-.33578.12455s-.18307.13119-.21385.19485c-.02921.06466-.00099.12075.08463.17018C11.95087 18.32979 12.0478 18.34595 12.156 18.32885M15.69428 19.7519l.16466.09506-.67397.39167c-.13747.07989-.27838.1179-.41957.11412-.14443-.00381-.27428-.03898-.39118-.10648-.11691-.0675-.18625-.14927-.20818-.24717l.20004-.0266c.0185.07699.06811.13782.14549.1825.07738.04468.15957.0694.24334.07222.08693.00289.17055-.0209.25886-.07222l.09816-.05704c-.06885.0133-.13946.01428-.21334.00381-.07229-.0114-.13637-.03329-.19236-.06561-.10374-.05989-.15176-.12926-.14889-.20914.00612-.07985.06318-.15116.1695-.21295.10632-.06179.22915-.09502.36539-.0979.13949-.00285.25949.02469.36322.08458.10208.05894.14346.13218.12425.21773L15.69428 19.7519zM15.10818 20.02002c.08536-.00192.16241-.0219.22941-.06084.0655-.03806.10134-.08368.10597-.13406.00298-.05133-.02845-.09601-.09431-.13403-.06587-.03803-.14145-.05514-.22845-.05036-.08691.00472-.16232.02566-.22613.06274-.06372.03703-.09801.07985-.10588.1302-.00628.04943.02351.09315.09102.13213C14.94567 20.00382 15.02291 20.02189 15.10818 20.02002M14.95409 19.18061c-.02572.09506-.11867.18914-.27905.28234-.16028.09315-.32248.14735-.48651.16256-.16563.01614-.31849-.01711-.45845-.09792-.1383-.07985-.1962-.16828-.16888-.26427.02572-.09506.11876-.18919.27905-.28234.16037-.0932.32248-.14735.48651-.16256.16572-.01619.31849.01711.45679.09696C14.92352 18.99619 14.9815 19.08457 14.95409 19.18061zM14.16972 19.49147c.1099-.01808.22125-.0599.33574-.12643.11458-.06658.18641-.13122.21558-.19395.03077-.06366.00264-.1198-.08463-.17018-.08562-.04943-.18262-.06555-.29407-.04846-.10989.01808-.22289.05895-.33578.12456-.11289.06561-.18307.13119-.21385.19485-.02922.06466-.00099.12075.08462.17018C13.9646 19.49241 14.06151 19.50857 14.16972 19.49147"/><polygon fill="#F2BC36" points="16.146 18.703 16.073 18.746 15.926 18.662 15.519 18.898 15.438 18.852 15.845 18.615 15.699 18.53 15.772 18.488"/><polygon fill="#F2BC36" points="15.743 18.47 15.092 18.652 15.012 18.605 15.24 18.355 15.235 18.352 14.803 18.485 14.722 18.438 15.035 18.062 15.122 18.112 14.899 18.383 15.351 18.244 15.425 18.287 15.187 18.549 15.654 18.419"/><polygon fill="#F2BC36" points="14.816 17.935 14.742 17.978 14.596 17.893 14.188 18.13 14.106 18.083 14.513 17.846 14.367 17.761 14.44 17.719"/><path fill="#F2BC36" d="M13.94642,18.59883c-0.02572,0.09506-0.11868,0.18913-0.27905,0.28233
							c-0.16028,0.09314-0.32248,0.14735-0.48651,0.16256c-0.16563,0.01614-0.31684-0.01616-0.4568-0.09697
							c-0.13996-0.0808-0.19621-0.16829-0.16889-0.26428c0.02572-0.09506,0.11877-0.18919,0.27905-0.28233
							c0.16037-0.0932,0.32248-0.14735,0.4865-0.16256c0.16571-0.01619,0.31684,0.01616,0.4568,0.09696
							C13.91748,18.41535,13.97382,18.50278,13.94642,18.59883z M13.16204,18.90968c0.10989-0.01808,0.22125-0.0599,0.33573-0.12644
							c0.11458-0.06659,0.18641-0.13122,0.21558-0.19395c0.03077-0.06366,0.00264-0.1198-0.08298-0.16923
							s-0.18427-0.0665-0.29408-0.04847c-0.11154,0.01714-0.22288,0.05895-0.33577,0.12456s-0.18472,0.13024-0.21385,0.19485
							c-0.03086,0.06372-0.00099,0.12075,0.08463,0.17019S13.05383,18.92679,13.16204,18.90968"/><polygon fill="#F2BC36" points="14.373 17.68 14.296 17.724 14.039 17.576 13.913 17.649 14.144 17.782 14.072 17.824 13.841 17.691 13.712 17.766 13.977 17.919 13.9 17.964 13.553 17.763 14.034 17.484"/><polygon fill="#FFF" points="29.175 13.596 29.34 14.153 28.999 13.683 28.387 14.81 28.587 13.544 28.03 13.709 28.5 13.367 27.373 12.755 28.639 12.955 28.474 12.398 28.816 12.868 29.428 11.741 29.228 13.008 29.785 12.843 29.315 13.184 30.442 13.796"/><polygon fill="#FFF" points="15.57 21.917 15.651 22.191 15.483 21.96 15.182 22.514 15.281 21.891 15.007 21.973 15.238 21.805 14.684 21.504 15.306 21.602 15.225 21.329 15.393 21.56 15.694 21.006 15.595 21.628 15.869 21.547 15.638 21.715 16.192 22.015"/></g><g><path fill="#FED44C" d="M43.64386,18.55657l-17.0681,9.91185l-5.76773-3.33257
							c-0.09966-0.05702-0.19935-0.06397-0.26346-0.02121l17.06102-9.91915c0.07119-0.03581,0.16376-0.02851,0.27059,0.02851
							L43.64386,18.55657z"/><path fill="#F2BC36" d="M45.33144,25.54159l-17.06097,9.91915c0.09257-0.05702,0.13529-0.19227,0.09257-0.38454
							l-1.42412-6.09529c-0.04985-0.20653-0.19227-0.41305-0.36316-0.51249l17.0681-9.91185
							c0.1638,0.09249,0.30618,0.29901,0.35603,0.50554l1.42412,6.10224C45.47386,25.34966,45.43114,25.48457,45.33144,25.54159z"/><path fill="#F9C73A" d="M26.57898,28.46963c0.1682,0.09711,0.30879,0.30376,0.3583,0.51034l1.42624,6.09774
							c0.07649,0.32152-0.10615,0.49882-0.35619,0.35445l-8.65611-4.99761c-0.25459-0.14699-0.4311-0.53164-0.35757-0.76655
							l1.45609-4.43362c0.05051-0.14883,0.19634-0.19011,0.36001-0.09562L26.57898,28.46963z"/><polygon fill="#F2BC36" points="37.208 18.044 37.071 18.124 36.633 17.871 36.391 18.011 36.783 18.238 36.648 18.316 36.256 18.09 35.894 18.3 35.745 18.215 36.622 17.705"/><path fill="#F2BC36" d="M37.54718 18.18187c.00011.02178-.01229.03869-.03521.05202-.02495.0145-.05411.02174-.08968.02056-.0355.00122-.0647-.00609-.08984-.0206-.02304-.0133-.03576-.0302-.03586-.05197-.00005-.01939.01235-.0363.0373-.0508.02292-.01332.05208-.02056.08759-.02178.03556.00117.06692.00723.08995.02054C37.53657 18.14434 37.54714 18.16248 37.54718 18.18187zM37.87568 18.65841c.07542.04354.11535.09315.11356.14758.00035.05319-.04322.10521-.12859.15482l-.41002.23828-.14037-.08104.36632-.21288c.12275-.07133.13282-.13786.03016-.19713-.04819-.02782-.10669-.04236-.1777-.04478-.06678-.00245-.13142.0157-.19184.05081l-.36214.21045-.14246-.08225.66817-.38829.14246.08225-.12286.0714c.06262-.01212.12521-.01209.18997-.00361C37.77515 18.61489 37.82959 18.6318 37.87568 18.65841z"/><polygon fill="#F2BC36" points="36.487 18.643 37.155 18.254 37.295 18.335 36.627 18.724"/><path fill="#F2BC36" d="M38.6423 19.46038l-.09565.05558-.52794-.3048c-.04369.03024-.06028.06659-.04961.10649.01074.0423.04435.07859.09673.10883.0838.04838.17573.07019.26969.06413l-.0057.09796c-.1461.00239-.27787-.03026-.39518-.09799-.09428-.05443-.14272-.11851-.14732-.1935-.00249-.07378.04721-.1415.15348-.20325.104-.06044.22075-.08945.35023-.08703.12949.00242.24038.0302.33256.08342.09009.05202.13847.1137.14933.18263C38.78156 19.34063 38.74021 19.40349 38.6423 19.46038zM38.12893 19.14711l.38548.22256c.05624-.03268.08319-.06775.07671-.10525-.00648-.03749-.03377-.07261-.08405-.10163-.05237-.03024-.11517-.04714-.18824-.05322C38.24564 19.10356 38.18314 19.11561 38.12893 19.14711M33.01888 20.22122c-.06667.01933-.13138.03024-.18775.03145-.11483.0012-.21312-.02178-.29482-.06895-.07961-.04596-.13008-.10402-.14499-.17058l.15647-.01811c.00219.01814.01281.03866.02954.06049.01482.02294.03375.04107.0547.05316.06704.03871.13803.05327.2153.04477.07513-.00725.15218-.03262.22919-.07737-.03753.0024-.08351-.00243-.13363-.01213-.05227-.00846-.09833-.02538-.13814-.04836-.06704-.03871-.10067-.08468-.10308-.13669.00174-.05198.03708-.09921.10992-.14154C33.25446 19.47999 33.82097 19.98148 33.01888 20.22122zM33.07828 20.00226c.3673.01759.12914-.36145-.14728-.20081C32.78794 19.88458 32.9281 19.99553 33.07828 20.00226M35.68532 21.29773c-.09259.1305-.35728.26755-.57273.27215-.11483.00121-.2131-.02178-.29481-.06895-.07962-.04597-.13007-.10401-.14499-.17058l.15647-.01812c.00219.01814.01281.03866.02954.06049.01482.02294.03375.04107.0547.05316.13887.08018.30528.0483.4445-.0326-.48477.03098-.49213-.41231-.01263-.40041.09189.00243.17766.02539.25099.06773C35.71788 21.13076 35.74538 21.20943 35.68532 21.29773zM35.35975 21.31946c.24295.01163.26319-.22024-.01183-.23341C35.10213 21.0803 35.07225 21.30656 35.35975 21.31946M34.52348 21.14772c.02095.0121.03359.02659.03364.04598.0001.01693-.01027.03266-.03308.04592-.02089.01214-.04802.01819-.07928.01937-.03133-.00121-.05854-.00724-.07949-.01934-.02304-.01331-.03354-.02905-.03365-.04598.00194-.01811.0123-.03384.03319-.04598.02281-.01326.04994-.01931.07917-.01931C34.47536 21.12714 34.50043 21.13442 34.52348 21.14772zM34.34712 20.98809c-.06667.01933-.12929.03145-.18776.03144-.11483.00121-.21101-.02057-.29271-.06774-.08171-.04718-.13007-.10401-.14709-.17179l.15856-.01691c.00219.01814.01072.03746.02745.05929.01481.02294.03374.04106.0547.05316.06704.03871.13803.05327.2174.04598.07512-.00725.15009-.03383.2292-.07737-.70515.02117-.27944-.63163.23836-.33268C34.92378 20.67229 34.63716 20.90137 34.34712 20.98809zM34.40652 20.76911c.36692.02536.13401-.36427-.14727-.2008C34.12297 20.6475 34.24903 20.76207 34.40652 20.76911M33.49525 20.6361c-.11483.0012-.21311-.02178-.29272-.06774-.08171-.04717-.13008-.10401-.14709-.17179l.15857-.0169c.00009.01693.01072.03745.02745.05928.01482.02294.03374.04107.0547.05316.13886.08017.30529.04831.44451-.0326-.13825.00882-.36848-.05884-.37485-.19719.00494-.14841.33977-.29336.61529-.13429C34.30556 20.31536 33.83819 20.62876 33.49525 20.6361zM33.7424 20.38568c.38091.02633.11845-.35523-.14727-.2008C33.45899 20.26399 33.58459 20.3786 33.7424 20.38568M38.47765 20.24535l.20951.12096-1.37167.79713-.20951-.12096.14782-.0859c-.1858.01818-.35093-.0145-.49967-.10037-.1257-.07257-.18879-.16211-.18737-.26974-.00066-.10883.07611-.20683.23014-.29635.15188-.08826.32292-.13184.51088-.12942.18586.00121.34681.04115.4788.11736.13198.0762.18271.1705.15199.28058L38.47765 20.24535zM37.28242 20.84529c.11484-.0012.22118-.02902.31479-.08342.09373-.05447.14345-.11733.14933-.18629.00588-.06895-.03204-.12943-.11375-.1766-.0838-.04838-.18834-.07015-.31154-.06894-.12111.00242-.22949.03142-.32322.08589-.09361.0544-.14128.11609-.14095.18628.00249.06894.04459.127.12629.17417C37.06717 20.82476 37.16544 20.84774 37.28242 20.84529"/><polygon fill="#F2BC36" points="37.436 19.644 36.065 20.441 35.855 20.32 37.227 19.523"/><path fill="#F2BC36" d="M36.32111 19.60308c.00056.11374-.06987.21292-.21136.29515-.14149.08223-.31249.12335-.50885.12339-.19626-.00002-.36983-.04477-.51858-.13065s-.22447-.18507-.22724-.29995c-.00057-.11375.06987-.21293.21136-.29516.14149-.08223.31249-.12335.50887-.12339.19835.00122.37186.04358.52061.12946C36.24464 19.38782 36.32043 19.4894 36.32111 19.60308zM35.5812 19.86074c.11694.00001.22328-.02781.31904-.08346.09576-.05565.14344-.11734.14508-.18625-.00028-.06779-.04453-.12945-.13462-.18146-.09008-.05201-.19667-.07744-.31371-.07738-.11897.00118-.22531.029-.32107.08465-.09576.05565-.14344.11734-.14305.18507-.00164.06891.0425.13063.13259.18264C35.35555 19.83655 35.46225 19.86192 35.5812 19.86074M35.17833 18.39594c.18855.10886.28949.2298.3048.3641l-.28377.02899c-.00658-.05443-.02772-.10038-.0635-.14027-.03566-.03995-.08608-.07861-.15522-.11853-.13198-.0762-.28249-.11495-.45794-.11735-.17331-.00364-.32977.03632-.46709.11611-.13743.07986-.20376.16938-.20109.26733.00477.09917.06785.18386.19146.25522.12361.07136.25337.11488.38922.13301l.35593-.20684.21998.127-.44334.25764c-.25686.00607-.49946-.05681-.72782-.18865-.19274-.11128-.29161-.24071-.29451-.38707-.00296-.14875.09029-.27819.28181-.38949.19355-.11248.41874-.1681.67979-.16691C34.76597 18.2327 34.99187 18.28829 35.17833 18.39594z"/><polygon fill="#F2BC36" points="23.913 24.177 22.896 24.768 22.733 24.674 23.596 24.172 23.389 24.052 23.543 23.963"/><polygon fill="#F2BC36" points="25.715 24.19 25.234 24.469 25.145 24.418 25.224 24.056 24.872 24.26 24.79 24.213 25.271 23.933 25.353 23.981 25.275 24.351 25.633 24.142"/><path fill="#F2BC36" d="M24.75517 24.80126c-.02572.09506-.11867.18914-.27905.28234-.16028.09315-.32248.14735-.48651.16256-.16563.01614-.31849-.01711-.45844-.09791-.13831-.07985-.19621-.16829-.16889-.26428.02572-.09506.11876-.18919.27904-.28234.16037-.0932.32249-.14734.48651-.16255.16572-.01619.31849.01711.4568.09696C24.72459 24.61683 24.78257 24.70522 24.75517 24.80126zM23.9708 25.11212c.10989-.01808.22124-.0599.33573-.12644.11458-.06658.18641-.13122.21558-.19395.03078-.06366.00264-.1198-.08463-.17018-.08562-.04943-.18262-.06555-.29408-.04846-.1099.01808-.22289.05895-.33578.12455-.11289.06561-.18307.13119-.21384.19486-.02921.06466-.00099.12075.08463.17018C23.76567 25.11305 23.86259 25.12922 23.9708 25.11212M27.50907 26.53516l.16466.09507-.67397.39167c-.13747.07989-.27838.1179-.41957.11412-.14443-.00381-.27428-.03899-.39118-.10648-.11691-.06749-.18625-.14927-.20818-.24717l.20004-.0266c.0185.07699.06811.13782.14549.1825.07738.04468.15957.0694.24334.07222.08693.00289.17055-.0209.25886-.07222l.09815-.05704c-.06885.0133-.13946.01428-.21334.00381-.07229-.0114-.13638-.03329-.19236-.06561-.10374-.05989-.15176-.12926-.14889-.20914.00612-.07985.06318-.15116.1695-.21295.10632-.06179.22915-.09502.36539-.0979.13949-.00285.25949.02469.36323.08458.10208.05894.14346.13218.12425.21773L27.50907 26.53516zM26.92297 26.80329c.08536-.00192.16241-.0219.22941-.06084.0655-.03806.10134-.08368.10597-.13406.00299-.05133-.02845-.09601-.09431-.13403-.06587-.03803-.14145-.05514-.22845-.05036-.08691.00472-.16232.02566-.22613.06274-.06372.03703-.09801.07985-.10589.1302-.00628.04943.02352.09315.09102.13213C26.76046 26.78709 26.8377 26.80516 26.92297 26.80329M26.76889 25.96388c-.02572.09506-.11867.18914-.27905.28234-.16028.09315-.32248.14735-.48651.16256-.16563.01613-.31849-.01711-.45845-.09792-.1383-.07985-.1962-.16828-.16888-.26427.02572-.09506.11876-.18919.27905-.28234.16037-.0932.32248-.14735.48651-.16256.16572-.01619.31849.01711.45679.09696C26.73831 25.77946 26.79629 25.86784 26.76889 25.96388zM25.98451 26.27473c.1099-.01808.22125-.0599.33574-.12643.11458-.06659.18641-.13122.21558-.19396.03077-.06366.00264-.11979-.08463-.17018-.08562-.04943-.18262-.06555-.29407-.04846-.10989.01808-.22289.05895-.33578.12456-.11289.06561-.18307.13119-.21385.19485-.02922.06466-.00099.12075.08462.17018C25.77939 26.27568 25.8763 26.29184 25.98451 26.27473"/><polygon fill="#F2BC36" points="27.961 25.487 27.887 25.529 27.741 25.445 27.334 25.682 27.253 25.635 27.66 25.398 27.514 25.314 27.587 25.271"/><polygon fill="#F2BC36" points="27.558 25.254 26.907 25.435 26.826 25.389 27.055 25.138 27.05 25.135 26.617 25.268 26.537 25.221 26.85 24.845 26.937 24.895 26.714 25.166 27.166 25.027 27.24 25.07 27.002 25.333 27.469 25.202"/><polygon fill="#F2BC36" points="26.631 24.719 26.557 24.761 26.41 24.677 26.003 24.913 25.921 24.866 26.328 24.629 26.182 24.545 26.255 24.502"/><path fill="#F2BC36" d="M25.76121,25.3821c-0.02572,0.09506-0.11868,0.18913-0.27905,0.28233
							c-0.16028,0.09315-0.32248,0.14735-0.48651,0.16256c-0.16563,0.01614-0.31684-0.01616-0.4568-0.09696
							c-0.13996-0.0808-0.19621-0.16829-0.16889-0.26428c0.02572-0.09506,0.11877-0.18919,0.27905-0.28233
							c0.16037-0.0932,0.32248-0.14735,0.4865-0.16256c0.16572-0.01619,0.31684,0.01616,0.4568,0.09696
							C25.73227,25.19862,25.78861,25.28605,25.76121,25.3821z M24.97683,25.69295c0.1099-0.01808,0.22125-0.0599,0.33573-0.12644
							c0.11458-0.06658,0.18641-0.13122,0.21558-0.19395c0.03077-0.06366,0.00264-0.1198-0.08298-0.16923
							c-0.08562-0.04943-0.18427-0.0665-0.29408-0.04847c-0.11154,0.01714-0.22289,0.05895-0.33578,0.12456
							c-0.11289,0.06561-0.18472,0.13024-0.21385,0.19485c-0.03086,0.06372-0.00099,0.12075,0.08463,0.17019
							C24.77171,25.69389,24.86862,25.71006,24.97683,25.69295"/><polygon fill="#F2BC36" points="26.188 24.463 26.111 24.507 25.854 24.359 25.728 24.432 25.958 24.566 25.886 24.607 25.656 24.474 25.527 24.549 25.792 24.702 25.715 24.747 25.368 24.546 25.849 24.267"/><polygon fill="#FFF" points="40.99 20.379 41.155 20.937 40.813 20.467 40.202 21.594 40.402 20.327 39.845 20.492 40.315 20.15 39.188 19.539 40.454 19.739 40.289 19.181 40.631 19.652 41.242 18.525 41.042 19.791 41.6 19.626 41.13 19.968 42.257 20.579"/><polygon fill="#FFF" points="27.384 28.7 27.466 28.974 27.298 28.743 26.997 29.297 27.096 28.675 26.822 28.756 27.053 28.588 26.499 28.288 27.121 28.386 27.04 28.112 27.208 28.343 27.508 27.789 27.41 28.412 27.684 28.33 27.453 28.498 28.007 28.799"/></g><g><path fill="#FED44C" d="M39.81411,7.60844l-17.0681,9.91185l-5.76773-3.33258
							c-0.09966-0.05702-0.19935-0.06397-0.26346-0.02121l17.06102-9.91915c0.07119-0.03581,0.16376-0.02851,0.27058,0.02851
							L39.81411,7.60844z"/><path fill="#F2BC36" d="M41.5017,14.59346l-17.06098,9.91915c0.09257-0.05702,0.13529-0.19227,0.09257-0.38454
							l-1.42412-6.09529c-0.04985-0.20653-0.19227-0.41305-0.36316-0.51249l17.0681-9.91185
							c0.1638,0.09248,0.30618,0.29901,0.35603,0.50554l1.42413,6.10225C41.64412,14.40154,41.60139,14.53644,41.5017,14.59346z"/><path fill="#F9C73A" d="M22.74923,17.5215c0.1682,0.09711,0.30879,0.30376,0.3583,0.51034l1.42624,6.09773
							c0.07649,0.32152-0.10615,0.49882-0.35619,0.35446l-8.65611-4.99761c-0.25459-0.14699-0.4311-0.53164-0.35757-0.76655
							l1.45609-4.43362c0.05051-0.14883,0.19634-0.19011,0.36001-0.09562L22.74923,17.5215z"/><polygon fill="#F2BC36" points="33.378 7.096 33.241 7.176 32.803 6.923 32.562 7.063 32.953 7.289 32.818 7.368 32.426 7.142 32.064 7.352 31.916 7.266 32.792 6.757"/><path fill="#F2BC36" d="M33.71744 7.23374c.00011.02178-.01229.03869-.03521.05201-.02496.0145-.05412.02174-.08968.02056-.0355.00122-.0647-.00609-.08984-.0206-.02304-.0133-.03576-.0302-.03586-.05197-.00005-.01939.01235-.0363.0373-.0508.02293-.01332.05209-.02056.08759-.02178.03556.00117.06691.00723.08995.02054C33.70683 7.19621 33.7174 7.21435 33.71744 7.23374zM34.04594 7.71028c.07542.04354.11535.09315.11356.14759.00035.05319-.04322.10521-.12859.15482l-.41002.23828-.14037-.08104.36632-.21288c.12275-.07133.13282-.13786.03016-.19713-.04818-.02782-.10668-.04236-.1777-.04477-.06679-.00245-.13142.0157-.19184.05081L33.14531 7.9764l-.14246-.08225.66816-.3883.14246.08225-.12286.0714c.06262-.01212.12521-.01209.18997-.00361C33.94541 7.66676 33.99985 7.68367 34.04594 7.71028z"/><polygon fill="#F2BC36" points="32.657 7.695 33.325 7.306 33.466 7.387 32.798 7.776"/><path fill="#F2BC36" d="M34.81256 8.51226l-.09565.05558-.52794-.3048c-.04369.03024-.06028.06659-.04961.1065.01074.0423.04435.07859.09673.10883.0838.04838.17574.07019.26969.06413l-.0057.09796c-.1461.00239-.27787-.03026-.39518-.09799-.09428-.05443-.14272-.11851-.14732-.1935-.00249-.07378.04721-.1415.15348-.20325.104-.06044.22075-.08945.35023-.08703.12949.00242.24038.0302.33256.08342.09009.05201.13847.1137.14933.18263C34.95182 8.3925 34.91046 8.45536 34.81256 8.51226zM34.29919 8.19899l.38548.22256c.05624-.03268.08319-.06775.07671-.10525-.00648-.03749-.03377-.0726-.08405-.10163-.05238-.03024-.11517-.04714-.18824-.05322C34.4159 8.15543 34.35339 8.16749 34.29919 8.19899M29.57411 9.03239c-.03516.04956-.08915.09792-.16616.14268-.07702.04476-.14999.07746-.21881.09803-.06667.01933-.13138.03024-.18775.03145-.11483.0012-.21311-.02178-.29481-.06895-.07961-.04596-.13008-.10402-.14499-.17058l.15647-.01811c.00219.01814.01281.03866.02954.06049.01482.02294.03375.04107.0547.05316.06704.03871.13803.05327.2153.04477.07513-.00725.15219-.03262.2292-.07737-.03753.0024-.08351-.00243-.13363-.01214-.05227-.00846-.09833-.02538-.13813-.04836-.06704-.03871-.10068-.08468-.10308-.13669.00174-.05197.03708-.09921.10992-.14154.07487-.04351.15618-.06406.25231-.06168.09188.00243.17766.02539.25098.06772C29.60666 8.86542 29.63416 8.9441 29.57411 9.03239zM29.24854 9.05413c.05016.0024.09599-.00724.13348-.02903.03952-.02297.05823-.0484.05589-.08102.0019-.03265-.01909-.05929-.06309-.0847-.04189-.02419-.08795-.03626-.13811-.03866-.05219-.00122-.09593.00963-.13546.0326-.03749.02179-.05823.04841-.06013.07621-.00196.03027.01903.05691.06302.0823C29.14813 9.03724 29.19425 9.0517 29.24854 9.05413M31.85558 10.3496c-.03516.04956-.08916.09792-.16617.14268-.07702.04476-.14998.07746-.2188.09803-.06667.01933-.13139.03024-.18776.03144-.11483.00121-.2131-.02177-.29481-.06895-.07962-.04597-.13007-.10401-.14499-.17058l.15647-.01812c.00219.01814.01282.03867.02955.06049.01482.02294.03375.04107.0547.05316.06704.03871.13803.05327.21531.04477.07512-.00725.15219-.03262.2292-.07737-.03754.0024-.08352-.00244-.13364-.01214-.05227-.00846-.09833-.02538-.13813-.04836-.06705-.03871-.10069-.08469-.10308-.13669.00173-.05198.03707-.09922.10991-.14154.07487-.04351.15618-.06406.25231-.06168.09189.00243.17766.02539.25099.06773C31.88814 10.18264 31.91563 10.2613 31.85558 10.3496zM31.53 10.37134c.05016.0024.09599-.00725.13348-.02903.03952-.02297.05824-.0484.0559-.08102.00189-.03266-.02118-.0605-.06308-.08469-.04191-.02419-.08796-.03626-.13811-.03866-.05219-.00122-.09593.00963-.13545.0326-.03749.02179-.06033.04719-.06014.07621-.00196.03027.01902.0569.06302.0823C31.4296 10.35445 31.47571 10.3689 31.53 10.37134M30.69373 10.1996c.02095.0121.03359.02659.03364.04598.0001.01693-.01027.03266-.03308.04592-.02089.01214-.04802.01819-.07928.01937-.03133-.00121-.05854-.00724-.07949-.01934-.02304-.0133-.03354-.02905-.03364-.04598.00194-.01811.0123-.03384.03319-.04599.02281-.01326.04994-.01931.07917-.01931C30.64562 10.17902 30.67068 10.18629 30.69373 10.1996zM30.90235 9.79925c-.03307.05077-.08915.09793-.16616.14268-.07702.04476-.15.07745-.21881.09803-.06667.01933-.12929.03145-.18776.03144-.11483.00121-.21101-.02056-.29271-.06774-.08171-.04718-.13007-.10401-.14709-.17179l.15856-.01691c.00219.01814.01072.03746.02745.05929.01482.02294.03375.04106.0547.05316.06704.03871.13803.05327.2174.04598.07512-.00725.15009-.03383.2292-.07737-.03963.00119-.08352-.00244-.13364-.01214-.05226-.00846-.09833-.02538-.14023-.04957-.06705-.03871-.10068-.08469-.10098-.13548-.00035-.05318.03499-.10042.10782-.14275.07487-.04351.15826-.06286.2523-.06169.09398.00364.17766.02539.25308.06894C30.9349 9.63228 30.9645 9.71217 30.90235 9.79925zM30.57677 9.82099c.05225.00361.09808-.00604.13557-.02782.03952-.02297.05614-.04961.0559-.08102.0019-.03265-.02118-.0605-.06308-.08469s-.09005-.03747-.14021-.03987c-.05219-.00122-.09593.00963-.13545.0326-.03749.02179-.05823.0484-.05804.07742-.00406.02906.01902.0569.06092.08109C30.47637 9.8041 30.5225 9.81856 30.57677 9.82099M30.23823 9.41582c-.03307.05077-.08916.09792-.16617.14268-.07702.04476-.14998.07746-.2188.09803-.06667.01933-.13138.03024-.18775.03145-.11483.0012-.21311-.02178-.29272-.06774-.08171-.04717-.13008-.10402-.14709-.17179l.15857-.0169c.00009.01693.01072.03745.02744.05928.01482.02294.03375.04107.0547.05316.06704.03871.13803.05327.21531.04477.07512-.00725.15219-.03261.2292-.07737-.03754.0024-.08143-.00123-.13364-.01214-.05226-.00846-.09623-.02417-.13814-.04836-.06703-.0387-.10068-.08468-.10307-.13669.00173-.05198.03707-.09922.10991-.14154.07487-.04351.15828-.06285.25231-.06168.09398.00364.17766.02539.25307.06893C30.27077 9.24885 30.30038 9.32874 30.23823 9.41582zM29.91265 9.43756c.05225.00361.09809-.00603.13558-.02782.03952-.02297.05614-.04961.05589-.08102-.0002-.03386-.02118-.0605-.06309-.0847-.04189-.02419-.09004-.03747-.1402-.03987-.05219-.00122-.09593.00963-.13545.0326-.03749.02179-.05823.0484-.05805.07742-.00406.02906.01693.05569.06092.08109C29.81225 9.42067 29.85836 9.43512 29.91265 9.43756M34.64791 9.29722l.20951.12096-1.37168.79713-.2095-.12096.14781-.0859c-.1858.01818-.35093-.0145-.49967-.10037-.1257-.07257-.18879-.16211-.18737-.26974-.00066-.10883.07611-.20684.23014-.29635.15188-.08826.32293-.13184.51088-.12942.18586.00121.34681.04115.4788.11736.13198.0762.18271.1705.15199.28058L34.64791 9.29722zM33.45268 9.89716c.11484-.0012.22117-.02902.31479-.08342.09373-.05447.14345-.11734.14932-.18629.00588-.06895-.03204-.12943-.11374-.1766-.0838-.04838-.18834-.07015-.31154-.06894-.12111.00242-.22949.03142-.32322.08589C33.07468 9.5222 33.027 9.5839 33.02734 9.65408c.00249.06894.04459.12699.12629.17417C33.23743 9.87663 33.3357 9.89962 33.45268 9.89716"/><polygon fill="#F2BC36" points="33.607 8.696 32.235 9.493 32.026 9.372 33.397 8.575"/><path fill="#F2BC36" d="M32.49136 8.65495C32.49193 8.7687 32.42149 8.86788 32.28 8.95011s-.31249.12335-.50886.12339c-.19626-.00002-.36984-.04477-.51858-.13065-.14875-.08588-.22447-.18507-.22724-.29995-.00057-.11375.06986-.21293.21136-.29516.14149-.08223.31249-.12335.50886-.12339.19835.00123.37186.04358.52061.12946S32.49069 8.54128 32.49136 8.65495zM31.75146 8.91261c.11693.00001.22328-.02781.31903-.08346.09576-.05565.14344-.11734.14508-.18625-.00028-.06779-.04453-.12945-.13461-.18146-.09009-.05201-.19668-.07744-.31371-.07738-.11896.00118-.22531.029-.32107.08465-.09576.05565-.14344.11734-.14305.18507-.00164.06891.0425.13063.13259.18264C31.5258 8.88843 31.6325 8.91379 31.75146 8.91261M31.34859 7.44782c.18855.10886.28949.2298.3048.3641l-.28377.02899c-.00658-.05443-.02772-.10038-.0635-.14027-.03566-.03995-.08608-.07861-.15522-.11853-.13198-.0762-.28248-.11495-.45794-.11735-.17331-.00365-.32977.03632-.46709.11611-.13743.07986-.20376.16938-.20109.26733.00477.09917.06785.18386.19146.25522.12361.07136.25337.11488.38922.13301L30.9614 8.0296l.21998.127-.44334.25764c-.25686.00607-.49946-.05682-.72782-.18865-.19274-.11128-.29161-.2407-.29452-.38707-.00296-.14875.09029-.27819.28181-.38949.19355-.11248.41874-.1681.67979-.16691C30.93622 7.28457 31.16213 7.34017 31.34859 7.44782z"/><polygon fill="#F2BC36" points="20.083 13.229 19.066 13.82 18.903 13.726 19.766 13.224 19.559 13.104 19.713 13.015"/><polygon fill="#F2BC36" points="21.885 13.242 21.404 13.521 21.316 13.47 21.394 13.108 21.042 13.312 20.96 13.265 21.441 12.985 21.523 13.033 21.445 13.403 21.803 13.194"/><path fill="#F2BC36" d="M20.92542 13.85313c-.02572.09506-.11867.18914-.27905.28234-.16028.09315-.32248.14735-.48651.16256-.16563.01614-.31849-.01711-.45844-.09791-.1383-.07985-.19621-.16829-.16889-.26428.02572-.09506.11876-.18919.27904-.28234.16037-.0932.32249-.14734.48651-.16255.16571-.01619.31849.01711.4568.09696C20.89484 13.66871 20.95283 13.75709 20.92542 13.85313zM20.14105 14.16399c.1099-.01808.22125-.0599.33573-.12644.11458-.06658.18641-.13122.21558-.19395.03077-.06366.00264-.1198-.08463-.17018-.08562-.04943-.18262-.06555-.29408-.04846-.1099.01808-.22289.05895-.33578.12455-.11289.06561-.18307.13119-.21384.19486-.02921.06466-.00099.12075.08463.17018C19.93592 14.16493 20.03284 14.18109 20.14105 14.16399M23.67933 15.58704l.16466.09507-.67397.39167c-.13747.07989-.27838.1179-.41957.11412-.14443-.00381-.27428-.03899-.39118-.10648-.11691-.06749-.18625-.14927-.20818-.24717l.20004-.0266c.0185.07699.06811.13782.14549.1825.07738.04468.15957.0694.24335.07222.08693.00289.17055-.0209.25886-.07222l.09815-.05704c-.06885.0133-.13946.01428-.21334.00381-.07229-.0114-.13638-.03329-.19236-.06561-.10374-.05989-.15176-.12926-.14889-.20914.00612-.07985.06318-.15116.1695-.21295.10632-.06179.22915-.09502.36539-.0979.13949-.00285.25949.02469.36323.08458.10208.05894.14346.13218.12425.21773L23.67933 15.58704zM23.09322 15.85516c.08536-.00192.16241-.0219.22941-.06084.0655-.03806.10134-.08368.10597-.13406.00298-.05133-.02845-.09601-.09431-.13403-.06586-.03803-.14145-.05514-.22845-.05036-.08691.00472-.16232.02566-.22613.06274-.06372.03703-.09801.07985-.10588.1302-.00628.04943.02352.09315.09102.13213C22.93072 15.83897 23.00795 15.85703 23.09322 15.85516M22.93914 15.01575c-.02572.09506-.11867.18914-.27905.28234-.16028.09314-.32248.14735-.48651.16256-.16563.01614-.31849-.01711-.45845-.09792-.13831-.07985-.1962-.16828-.16888-.26427.02572-.09506.11876-.18919.27905-.28234.16037-.0932.32248-.14735.48651-.16256.16572-.01619.31849.01711.45679.09696C22.90856 14.83133 22.96654 14.91971 22.93914 15.01575zM22.15477 15.32661c.1099-.01808.22125-.0599.33574-.12643.11458-.06658.18641-.13122.21558-.19395.03078-.06366.00265-.1198-.08463-.17018-.08562-.04943-.18262-.06555-.29407-.04846-.1099.01808-.22289.05895-.33578.12456-.11289.06561-.18307.13119-.21385.19485-.02922.06466-.00099.12075.08462.17018C21.94965 15.32755 22.04656 15.34371 22.15477 15.32661"/><polygon fill="#F2BC36" points="24.131 14.539 24.058 14.581 23.911 14.497 23.504 14.733 23.423 14.687 23.83 14.45 23.684 14.365 23.758 14.323"/><polygon fill="#F2BC36" points="23.728 14.306 23.077 14.487 22.997 14.441 23.225 14.19 23.22 14.187 22.788 14.32 22.707 14.273 23.02 13.897 23.107 13.947 22.884 14.218 23.336 14.079 23.41 14.122 23.172 14.385 23.639 14.254"/><polygon fill="#F2BC36" points="22.801 13.77 22.727 13.813 22.581 13.729 22.173 13.965 22.091 13.918 22.498 13.681 22.352 13.596 22.425 13.554"/><path fill="#F2BC36" d="M21.93146,14.43397c-0.02572,0.09506-0.11868,0.18914-0.27905,0.28233
							c-0.16028,0.09314-0.32248,0.14735-0.48651,0.16256c-0.16563,0.01614-0.31684-0.01616-0.4568-0.09697
							c-0.13996-0.0808-0.19621-0.16829-0.16889-0.26428c0.02572-0.09506,0.11877-0.18919,0.27905-0.28233
							c0.16037-0.0932,0.32248-0.14735,0.4865-0.16256c0.16572-0.01619,0.31684,0.01616,0.4568,0.09696
							C21.90253,14.2505,21.95886,14.33793,21.93146,14.43397z M21.14709,14.74483c0.1099-0.01808,0.22125-0.05991,0.33573-0.12644
							c0.11458-0.06658,0.18641-0.13122,0.21558-0.19395c0.03077-0.06366,0.00264-0.1198-0.08298-0.16923
							c-0.08562-0.04943-0.18427-0.0665-0.29408-0.04846c-0.11154,0.01714-0.22288,0.05895-0.33577,0.12456
							c-0.11289,0.06561-0.18472,0.13024-0.21385,0.19485c-0.03086,0.06372-0.00099,0.12075,0.08463,0.17019
							S21.03888,14.76193,21.14709,14.74483"/><polygon fill="#F2BC36" points="22.358 13.515 22.281 13.559 22.024 13.411 21.898 13.484 22.129 13.617 22.057 13.659 21.826 13.526 21.697 13.601 21.962 13.754 21.885 13.799 21.538 13.598 22.019 13.319"/><polygon fill="#FFF" points="37.16 9.431 37.326 9.989 36.984 9.518 36.372 10.645 36.572 9.379 36.015 9.544 36.485 9.202 35.358 8.591 36.624 8.791 36.459 8.233 36.801 8.703 37.413 7.576 37.213 8.843 37.77 8.678 37.3 9.02 38.427 9.631"/><polygon fill="#FFF" points="23.555 17.752 23.636 18.026 23.468 17.795 23.168 18.349 23.266 17.727 22.992 17.808 23.223 17.64 22.669 17.339 23.292 17.438 23.21 17.164 23.378 17.395 23.679 16.841 23.58 17.463 23.854 17.382 23.623 17.55 24.177 17.851"/></g></svg>