<svg id="Layer_1" data-name="Layer 1" xmlns="http://www.w3.org/2000/svg" viewBox="0 0 3279.99 174.74">
  <defs>
    <style>
      .cls-1 {
        fill: #f6f6f6;
      }
    </style>
  </defs>
  <g>
    <path class="cls-1" d="M45.49,156.25V16.4h71.12q27.77,0,41.35,10.19T171.55,53a32.84,32.84,0,0,1-5.6,19,36.86,36.86,0,0,1-16,12.79q-10.4,4.59-24.37,4.59l3.79-9.59q14.58,0,25.68,4.5a37.89,37.89,0,0,1,17.18,13.08q6.09,8.59,6.09,20.58,0,18-14.69,28.17T120.6,156.25Zm38.95-28.57h33.17q10.38,0,15.58-3.5t5.19-10.69q0-7.18-5.19-10.68t-15.58-3.5h-36V71.94h30q10,0,15-3.4t5-10q0-7-5-10.29t-15-3.3H84.44Z"/>
    <path class="cls-1" d="M239.07,156.25V16.4H302.8Q322,16.4,336,22.6t21.48,17.88q7.49,11.69,7.49,27.46,0,16.19-7.49,27.57T336,113q-14,6.11-33.16,6.1H260.85l17.78-16.78v53.94Zm39.56-49.35L260.85,88.52H300.4q12.39,0,18.58-5.39t6.19-15.19q0-9.37-6.19-14.88T300.4,47.57H260.85l17.78-18.18Zm46.74,49.35L290.61,105.3h42.16l35,51Z"/>
    <path class="cls-1" d="M426.86,156.25V16.4h39.55V156.25Z"/>
    <path class="cls-1" d="M534.54,156.25V16.4h39V156.25Zm35.16-31-2.2-44.35L627.63,16.4H671L611.45,81.33l-22.18,23Zm58.53,31L582.68,98.51l25.77-27.57,65.73,85.31Z"/>
    <path class="cls-1" d="M701.15,156.25,762.88,16.4h39l61.93,139.85H822.61L774.27,35.78h15.58L741.51,156.25Zm33.76-27.37,10.19-29h68.33l10.18,29Z"/>
    <path class="cls-1" d="M982.64,159a85.64,85.64,0,0,1-30.57-5.29,73.37,73.37,0,0,1-24.37-15,68.09,68.09,0,0,1-16.18-23.08,73,73,0,0,1-5.8-29.37A73,73,0,0,1,911.52,57,68.19,68.19,0,0,1,927.7,33.88a73.37,73.37,0,0,1,24.37-15,85.64,85.64,0,0,1,30.57-5.29q19.36,0,34.66,6.69A64.94,64.94,0,0,1,1042.77,40L1017.6,62.75a49.37,49.37,0,0,0-15-12.19,38.93,38.93,0,0,0-18-4.19,43.11,43.11,0,0,0-15.78,2.8,33.7,33.7,0,0,0-12.28,8.09,38.11,38.11,0,0,0-8,12.68,44.58,44.58,0,0,0-2.89,16.38,44.6,44.6,0,0,0,2.89,16.39,38.11,38.11,0,0,0,8,12.68,33.7,33.7,0,0,0,12.28,8.09,43.11,43.11,0,0,0,15.78,2.8,38.81,38.81,0,0,0,18-4.2,48,48,0,0,0,15-12.38l25.17,22.77a65.83,65.83,0,0,1-25.47,19.78Q1002,159,982.64,159Z"/>
    <path class="cls-1" d="M1140.06,156.25H1100.5V16.4h39.56Zm56.54-54.54h-59.54V68.94h59.54Zm-2.8-85.31h39.55V156.25H1193.8Z"/>
    <path class="cls-1" d="M1284.5,156.25,1346.23,16.4h39l61.93,139.85H1406L1357.62,35.78h15.58l-48.35,120.47Zm33.76-27.37,10.19-29h68.32l10.19,29Z"/>
    <path class="cls-1" d="M1596.54,156.25V16.4h39.56V124.88h66.53v31.37Z"/>
    <path class="cls-1" d="M1826.49,159a86.56,86.56,0,0,1-30.87-5.39,71.46,71.46,0,0,1-40.95-38.46,70.82,70.82,0,0,1-5.9-29.07,69.67,69.67,0,0,1,5.9-28.76A71.93,71.93,0,0,1,1795.52,19a91.64,91.64,0,0,1,61.93,0A73.5,73.5,0,0,1,1882,34.18a71.15,71.15,0,0,1,16.29,23,70.29,70.29,0,0,1,5.89,29,72.45,72.45,0,0,1-5.79,29.27,68.93,68.93,0,0,1-16.29,23.08,74.66,74.66,0,0,1-24.67,15.18A86.35,86.35,0,0,1,1826.49,159Zm0-32.76a39.09,39.09,0,0,0,14.88-2.8,34.4,34.4,0,0,0,12-8.09,38.41,38.41,0,0,0,8-12.58,44.39,44.39,0,0,0,2.89-16.49,44.41,44.41,0,0,0-2.89-16.48,38.41,38.41,0,0,0-8-12.58,34.4,34.4,0,0,0-12-8.09,41,41,0,0,0-29.77,0,35.32,35.32,0,0,0-12.08,8.09,36.11,36.11,0,0,0-8,12.58,45.68,45.68,0,0,0-2.8,16.48,45.66,45.66,0,0,0,2.8,16.49,36.11,36.11,0,0,0,8,12.58,35.32,35.32,0,0,0,12.08,8.09A39.15,39.15,0,0,0,1826.49,126.28Z"/>
    <path class="cls-1" d="M2035.45,159a86.55,86.55,0,0,1-30.86-5.39,71.44,71.44,0,0,1-41-38.46,70.82,70.82,0,0,1-5.89-29.07,69.66,69.66,0,0,1,5.89-28.76A71.91,71.91,0,0,1,2004.49,19a91.64,91.64,0,0,1,61.93,0A73.7,73.7,0,0,1,2091,34.18a71.27,71.27,0,0,1,16.28,23,70.13,70.13,0,0,1,5.89,29,72.45,72.45,0,0,1-5.79,29.27,68.9,68.9,0,0,1-16.28,23.08,74.76,74.76,0,0,1-24.67,15.18A86.37,86.37,0,0,1,2035.45,159Zm0-32.76a39.06,39.06,0,0,0,14.88-2.8,34.22,34.22,0,0,0,12-8.09,38.24,38.24,0,0,0,8-12.58,44.39,44.39,0,0,0,2.9-16.49,44.41,44.41,0,0,0-2.9-16.48,38.24,38.24,0,0,0-8-12.58,34.22,34.22,0,0,0-12-8.09,40.94,40.94,0,0,0-29.76,0,35.27,35.27,0,0,0-12.09,8.09,36.25,36.25,0,0,0-8,12.58,45.68,45.68,0,0,0-2.8,16.48,45.66,45.66,0,0,0,2.8,16.49,36.25,36.25,0,0,0,8,12.58,35.27,35.27,0,0,0,12.09,8.09A39.06,39.06,0,0,0,2035.45,126.28Z"/>
    <path class="cls-1" d="M2201.66,156.25V47.77h-42.95V16.4H2284V47.77h-42.75V156.25Z"/>
    <path class="cls-1" d="M2338.91,156.25V16.4H2410q27.76,0,41.35,10.19T2465,53a32.91,32.91,0,0,1-5.59,19,36.83,36.83,0,0,1-16,12.79Q2433,89.32,2419,89.32l3.8-9.59q14.58,0,25.67,4.5a37.89,37.89,0,0,1,17.18,13.08q6.09,8.59,6.09,20.58,0,18-14.68,28.17t-43,10.19Zm39-28.57H2411q10.38,0,15.58-3.5t5.2-10.69q0-7.18-5.2-10.68T2411,99.31h-36V71.94h30q10,0,15-3.4t5-10q0-7-5-10.29T2405,45h-27.17Z"/>
    <path class="cls-1" d="M2602.82,159a86.56,86.56,0,0,1-30.87-5.39A71.46,71.46,0,0,1,2531,115.19a70.82,70.82,0,0,1-5.9-29.07,69.67,69.67,0,0,1,5.9-28.76A71.93,71.93,0,0,1,2571.85,19a91.64,91.64,0,0,1,61.93,0,73.5,73.5,0,0,1,24.57,15.18,71.15,71.15,0,0,1,16.29,23,70.29,70.29,0,0,1,5.89,29,72.28,72.28,0,0,1-5.8,29.27,68.76,68.76,0,0,1-16.28,23.08,74.66,74.66,0,0,1-24.67,15.18A86.35,86.35,0,0,1,2602.82,159Zm0-32.76a39.13,39.13,0,0,0,14.88-2.8,34.4,34.4,0,0,0,12-8.09,38.57,38.57,0,0,0,8-12.58,44.39,44.39,0,0,0,2.89-16.49,44.41,44.41,0,0,0-2.89-16.48,38.57,38.57,0,0,0-8-12.58,34.4,34.4,0,0,0-12-8.09,41,41,0,0,0-29.77,0,35.32,35.32,0,0,0-12.08,8.09,36.11,36.11,0,0,0-8,12.58,45.68,45.68,0,0,0-2.8,16.48,45.66,45.66,0,0,0,2.8,16.49,36.11,36.11,0,0,0,8,12.58,35.32,35.32,0,0,0,12.08,8.09A39.15,39.15,0,0,0,2602.82,126.28Z"/>
    <path class="cls-1" d="M2721.88,156.25,2783,71.14l-.2,28.17L2724.08,16.4h44.55L2806,70.54h-18.78l37-54.14h42.55l-58.53,81.51v-28l61.93,86.31h-45.55l-38.16-56.94h18.18L2767,156.25Z"/>
    <path class="cls-1" d="M2958.42,125.48h73.12v30.77H2919.46V16.4h109.48V47.17h-70.52Zm-2.8-54.94h64.93V99.91h-64.93Z"/>
    <path class="cls-1" d="M3142.61,159a127,127,0,0,1-33.26-4.29q-15.88-4.29-25.67-10.89l13-29.37a91.49,91.49,0,0,0,21.68,9.89,80.52,80.52,0,0,0,24.47,3.9,50.41,50.41,0,0,0,13.29-1.4,14.71,14.71,0,0,0,7.19-4,9,9,0,0,0,2.3-6.19q0-4.59-4.4-7.29a43.85,43.85,0,0,0-11.49-4.6q-7.1-1.89-15.38-3.59a152.81,152.81,0,0,1-16.88-4.5,64.14,64.14,0,0,1-15.58-7.39,35.26,35.26,0,0,1-11.29-12q-4.31-7.38-4.3-18.57a39.82,39.82,0,0,1,6.8-22.58q6.78-10.18,20.57-16.38T3148,13.61a119,119,0,0,1,27.06,3.09A80.07,80.07,0,0,1,3198.55,26l-12,29.17A85.22,85.22,0,0,0,3166.78,47a73.9,73.9,0,0,0-19-2.6,39.76,39.76,0,0,0-13.19,1.8q-5,1.8-7.19,4.59a9.53,9.53,0,0,0-2.2,6,8.37,8.37,0,0,0,4.4,7.49A39.58,39.58,0,0,0,3141,68.64q7,1.71,15.49,3.5a171.76,171.76,0,0,1,16.88,4.5,66.79,66.79,0,0,1,15.48,7.19,35.28,35.28,0,0,1,11.49,11.78q4.4,7.31,4.39,18.28a39.6,39.6,0,0,1-6.89,22.48q-6.9,10.29-20.68,16.48T3142.61,159Z"/>
  </g>
</svg>
